<svg xmlns="http://www.w3.org/2000/svg" viewBox="0 0 1365 765">
  <defs>
    <style>
      .cls-1 {
        fill: #fff;
      }

      .cls-2 {
        fill: #fff4ce;
      }

      .cls-3 {
        fill: #ffdd70;
      }

      .cls-4 {
        fill: none;
        stroke: #000;
        stroke-miterlimit: 10;
        stroke-width: 1.79px;
      }

      .cls-5 {
        fill: #ffcb20;
      }
    </style>
  </defs>
  <title>background_1</title>
  <g id="Layer_2" data-name="Layer 2">
    <g id="Layer_1-2" data-name="Layer 1">
      <rect class="cls-1" width="1365" height="765"/>
      <g>
        <g>
          <path class="cls-2" d="M1271.16,415.07c.4.61,1.66.6.52,1.82-1.85,1.79-3.86,3.07-5.79,4.71a13.68,13.68,0,0,0-4.46,5.8l.9.83a56.09,56.09,0,0,0-4.85,8.65c-.27,1.32-.45,2.44-.62,3.66s-.3,2.46-.39,3.74a48.39,48.39,0,0,0,.07,8.23c.42-.16.82-.24,1,.33.38,2.17.36,6.42,1.52,10.34.26.56.5,1.12.78,1.64a1.27,1.27,0,0,0,1.08.27c.62,1.69,1.26,3.16,1.89,4.52l.4.55a31.93,31.93,0,0,0,11.17,8.88,33.6,33.6,0,0,0,3.23,1.37,30.38,30.38,0,0,0,3.06.92,37.51,37.51,0,0,0,5.83,1,42.35,42.35,0,0,0,5.62.13,40,40,0,0,0,6.58-.57,38.84,38.84,0,0,0,6.12-1.52,35.43,35.43,0,0,0,5.53-2.46,42.86,42.86,0,0,0,6.62-6.77,30,30,0,0,0,4.9-6.36,17.46,17.46,0,0,0,1.91-5.93,4.09,4.09,0,0,1-2.68-1.69c-.83-.92-1.65-2.05-2.59-3a9,9,0,0,0-3.16-2.21,4.5,4.5,0,0,0-3.25-.06,8.6,8.6,0,0,0-1.11-2.65c-.53-.76-1.17-1.24-1.78-1.07-3.68,1-8.35,1.57-10.65,2.34-1.34-.63-3.15-4.13-4.25-4.12-.87,0-.67,1-.51,1.93s.3,1.88-.54,1.9c.85.85,1.61,1.63,2.27,2.33l.49.52s0,0,0,0l-.06,0c-.08,0-.14,0-.16,0s.12-.15.29-.06.26.49,0,.46a1,1,0,0,1-.13.59s0,0,0,.06v0s0,0,0,0a5.61,5.61,0,0,1-.71,0c-.5,0-1,0-1.5-.09L1293,454c-.21-.06-.48-.09-.67-.15s-.45-.12-.57-.15-.13,0-.23,0a3.49,3.49,0,0,1-.46-.15,2.8,2.8,0,0,1-.43-.3,2,2,0,0,1-.36-.53,2.83,2.83,0,0,1-.11-.31c0-.07,0-.05,0-.22a4.58,4.58,0,0,1-.06-.47,21.53,21.53,0,0,1,.49-5.58,9.89,9.89,0,0,1,1-3.37l0,0-.46-.28-.39-.25c-.28-.2-.43-.29-.64-.45l0,0-.65-.48h0l0,0,.06,0,.11.1.16.15c.06.08.2.22.3.33l.26.35a4,4,0,0,1,.27.4,2.75,2.75,0,0,1,.27.46l.14.24a1,1,0,0,1,.08.18s0,0,0,0a2.81,2.81,0,0,1,.32-.23,5.36,5.36,0,0,0,.59-.43l.75-.58a4.35,4.35,0,0,1,.58-.31,8.64,8.64,0,0,1,4.18-1.41c-.07-.89-.17-1.79-.28-2.62,1.18.76,2.26,1.82,3.22,1.68,1.85.53,2.86.31,3.5-.64a12.11,12.11,0,0,0,1.15-4.12c0-.87.54-1.39,1.08-1.95a2,2,0,0,0,.55-2.43,30.09,30.09,0,0,1,2.91,3c.49-.33-.49-1.18-1.38-1.93s-1.7-1.44-.63-1.81c1,1.4,2.79,2.18,3.88,3.54.41-.74-.49-2-1.44-3.09s-1.91-2.06-1.31-2.58c.51.18,1.18,1.43,1.79,2.51s1.24,1.95,2.08,1.44c.35-.21-.85-1.61-1.52-2.27,2.28,1.77,4.09,3.15,5.27,3.36s1.74-.78.71-3.69c1.29,1.58,2.24,4.3,3.51,5.9l0,0a37.35,37.35,0,0,0-1.7-3.41c.68,1,1.31,2,1.91,3,.13-.3.24-.63.35-1a9.37,9.37,0,0,0-1.17-2.53c.45.67.9,1.34,1.32,2a12.73,12.73,0,0,0,.32-2.76c-.69-3.15-1.43-6.71-2.71-8a41.89,41.89,0,0,0-7.54-6.68,38.6,38.6,0,0,0-10-4.87,37.57,37.57,0,0,0-7.53-1.47,37,37,0,0,0-7.66.18A34.08,34.08,0,0,0,1271.16,415.07Z"/>
          <path d="M1275.15,423.87c4.09,0,6.87,2.12,8.27,6.3l1,3,2.06-2.41a12.44,12.44,0,0,1,9.69-4.44,14.83,14.83,0,0,1,12.42,6.79c2.43,3.94,2.44,8.78,0,13.61l-1.55,3.1,3.42-.52a17.33,17.33,0,0,1,2.67-.22c3.95,0,6,1.68,6,5,0,5.64-6.21,14.64-13.56,14.64a10,10,0,0,1-6.7-2.82l-2.74-2.44-.24,3.66c-.29,4.4-2.53,9.65-11.5,9.65-10.3,0-22.26-7.13-24.6-14.66-1.45-4.68.78-9.09,6.64-13.12l3-2-3.41-1.14c-4.08-1.35-8.76-4-8-8.95,1-6.21,10-13,17.14-13m0-1.8c-12.85,0-29.87,18.76-9.75,25.47-20,13.77,2.79,31,19,31,7,0,12.75-3.21,13.29-11.32a11.75,11.75,0,0,0,7.89,3.27c12.75,0,23-23.23,7.6-23.24a18.81,18.81,0,0,0-2.94.25c6.44-12.89-3.79-23-14-23a14.27,14.27,0,0,0-11.05,5.07c-1.8-5.42-5.65-7.54-10-7.54Z"/>
          <path class="cls-3" d="M1281.2,433.22a12.94,12.94,0,0,1,1,1.5c.18.71-1.32-1.21-1.14-.5l.63,1c-.43-.31-1-.75-1.42-1.1a3.43,3.43,0,0,0-.43,1.3,7.6,7.6,0,0,1,.52.82c0,.35-.35.12-.6.14l0,.22c.12.22.34.57.48.78a.61.61,0,0,1-.37-.09c.4,2.51,1,5.35,1.52,8.22a17.83,17.83,0,0,1,.86,2.61c0,.57-.84.18-1.2.26,2.33,3.41,2.76,5.56,5.21,8.95-.24.05-.6.12,0,1.11,1.89,2.95,4,6.42,4.65,8.51.07.54-1-.49-.72.15.51,1,1.62,1.89,2.13,2.9,2.17.09,2.73-2.11,4.22-3.06-.51-1.86,2.43-4.77,3.74-4.67a.31.31,0,0,0,0-.1c.6-.12,1-.76.53-2.34-.35-.93-.82-2-1.26-3.12-.46-.51-.92-1-1.36-1.54.24,0,.48-.1.14-.77-.58-1.74-2-3.31-3.66-5.56-.79-.95-1.69-2.62-2.56-3.55l.4-.09c-.63-1-.06.76-1-.9.37.29.11-.39.27-.43-.92-1.29-.77-.21-1.61-1.52-.13-.35,1.53,1.54.48-.1-.21-.33-.37-.29-.45-.28.06-.75-.76-2.44-2.29-4,.16,0,.79.54.77.23l0,0c-.1,0-.43-.27-.51-.25l.28-.06c-.16-.22-.32-.44-.49-.65s-.35-.29-.42-.28l.19,0c-.39-.5-.77-1-1.14-1.43a30.35,30.35,0,0,0-2.17-2.34A5.28,5.28,0,0,0,1281.2,433.22Z"/>
          <path class="cls-4" d="M1290.5,442.16c-1,6.55-4.35,8.23-9,7.17,3.06,4.47,3,8.65,0,12.55,5.46,1,9.36-.81,10.76-7.17h12.55c-.85-4.63-5-5.87-10.76-5.38,1.32-3.55,0-6.52-3.58-9"/>
        </g>
        <g>
          <path class="cls-2" d="M1118.77,415.07c.4.61,1.66.6.53,1.82-1.86,1.79-3.87,3.07-5.8,4.71a13.65,13.65,0,0,0-4.45,5.8l.89.83a56.94,56.94,0,0,0-4.85,8.65c-.27,1.32-.45,2.44-.61,3.66s-.3,2.46-.4,3.74a48.44,48.44,0,0,0,.08,8.23c.42-.16.81-.24,1,.33.37,2.17.35,6.42,1.52,10.34.25.56.5,1.12.77,1.64a1.3,1.3,0,0,0,1.09.27c.61,1.69,1.25,3.16,1.88,4.52l.41.55A32,32,0,0,0,1122,479a33.77,33.77,0,0,0,3.24,1.37,28.9,28.9,0,0,0,3.06.92,37.32,37.32,0,0,0,5.83,1,42.31,42.31,0,0,0,5.62.13,40.07,40.07,0,0,0,6.58-.57,39.11,39.11,0,0,0,6.12-1.52,35.32,35.32,0,0,0,5.52-2.46,43.38,43.38,0,0,0,6.63-6.77,30.31,30.31,0,0,0,4.89-6.36,17.71,17.71,0,0,0,1.92-5.93,4,4,0,0,1-2.68-1.69c-.84-.92-1.65-2.05-2.6-3a8.83,8.83,0,0,0-3.15-2.21,4.53,4.53,0,0,0-3.26-.06,8.36,8.36,0,0,0-1.11-2.65c-.53-.76-1.17-1.24-1.78-1.07-3.67,1-8.35,1.57-10.65,2.34-1.34-.63-3.15-4.13-4.24-4.12-.87,0-.68,1-.51,1.93s.29,1.88-.54,1.9c.84.85,1.6,1.63,2.27,2.33l.48.52s0,0,0,0l-.06,0c-.08,0-.14,0-.16,0s.11-.15.28-.06.26.49,0,.46a1.07,1.07,0,0,1-.13.59s0,0,0,.06l0,0s0,0-.06,0a5.51,5.51,0,0,1-.71,0c-.49,0-1,0-1.5-.09l-.73-.11c-.21-.06-.48-.09-.67-.15s-.45-.12-.57-.15-.14,0-.23,0a3.6,3.6,0,0,1-.47-.15,3.38,3.38,0,0,1-.43-.3,2,2,0,0,1-.35-.53,1.66,1.66,0,0,1-.12-.31c0-.07,0-.05,0-.22s0-.28,0-.47a21,21,0,0,1,.48-5.58,10.16,10.16,0,0,1,1-3.37s0,0,0,0l-.46-.28-.4-.25-.63-.45,0,0-.65-.48h0l0,0,.06,0,.1.1a1.17,1.17,0,0,1,.16.15c.07.08.21.22.3.33l.27.35c.1.13.16.25.27.4s.19.31.27.46l.13.24c0,.07.11.22.09.18s0,0,0,0,.15-.13.32-.23a5.38,5.38,0,0,0,.6-.43l.75-.58a3.81,3.81,0,0,1,.58-.31,8.56,8.56,0,0,1,4.17-1.41c-.07-.89-.17-1.79-.28-2.62,1.18.76,2.26,1.82,3.22,1.68,1.85.53,2.87.31,3.5-.64a12.11,12.11,0,0,0,1.15-4.12c0-.87.54-1.39,1.09-1.95a2,2,0,0,0,.55-2.43,31.25,31.25,0,0,1,2.91,3c.49-.33-.49-1.18-1.39-1.93s-1.69-1.44-.62-1.81c1,1.4,2.78,2.18,3.87,3.54.41-.74-.48-2-1.44-3.09s-1.9-2.06-1.31-2.58c.52.18,1.18,1.43,1.79,2.51s1.25,1.95,2.09,1.44c.35-.21-.85-1.61-1.52-2.27,2.27,1.77,4.09,3.15,5.26,3.36s1.75-.78.72-3.69c1.28,1.58,2.24,4.3,3.51,5.9l0,0a37.35,37.35,0,0,0-1.7-3.41c.68,1,1.31,2,1.9,3a9.05,9.05,0,0,0,.35-1,9.34,9.34,0,0,0-1.16-2.53c.45.67.89,1.34,1.31,2a12.14,12.14,0,0,0,.32-2.76c-.68-3.15-1.43-6.71-2.71-8a41.89,41.89,0,0,0-7.54-6.68,38.44,38.44,0,0,0-10-4.87,35.48,35.48,0,0,0-15.19-1.29A34.12,34.12,0,0,0,1118.77,415.07Z"/>
          <path d="M1122.76,423.87c4.09,0,6.88,2.12,8.27,6.3l1,3,2.06-2.41a12.42,12.42,0,0,1,9.68-4.44,14.82,14.82,0,0,1,12.42,6.79c2.44,3.94,2.45,8.78,0,13.61l-1.55,3.1,3.43-.52a17.21,17.21,0,0,1,2.66-.22c4,0,6,1.68,6,5,0,5.64-6.2,14.64-13.56,14.64a10,10,0,0,1-6.69-2.82l-2.74-2.44-.24,3.66c-.3,4.4-2.53,9.65-11.5,9.65-10.31,0-22.26-7.13-24.6-14.66-1.45-4.68.78-9.09,6.63-13.12l3-2-3.42-1.14c-4.07-1.35-8.76-4-7.95-8.95,1-6.21,10-13,17.13-13m0-1.8c-12.85,0-29.87,18.76-9.75,25.47-20,13.77,2.79,31,19,31,7,0,12.74-3.21,13.28-11.32a11.77,11.77,0,0,0,7.89,3.27c12.75,0,23-23.23,7.6-23.24a18.81,18.81,0,0,0-2.94.25c6.45-12.89-3.79-23-14-23a14.28,14.28,0,0,0-11,5.07c-1.8-5.42-5.65-7.54-10-7.54Z"/>
          <path class="cls-3" d="M1128.81,433.22a12.94,12.94,0,0,1,1,1.5c.18.71-1.32-1.21-1.14-.5l.64,1c-.43-.31-1-.75-1.42-1.1a3.43,3.43,0,0,0-.44,1.3,6.25,6.25,0,0,1,.52.82c0,.35-.35.12-.6.14a1.7,1.7,0,0,1,0,.22c.12.22.34.57.47.78a.63.63,0,0,1-.37-.09c.4,2.51,1,5.35,1.52,8.22a16.68,16.68,0,0,1,.86,2.61c0,.57-.84.18-1.19.26,2.33,3.41,2.75,5.56,5.2,8.95-.24.05-.6.12,0,1.11,1.9,2.95,4,6.42,4.65,8.51.08.54-1-.49-.72.15.52,1,1.63,1.89,2.14,2.9,2.16.09,2.73-2.11,4.22-3.06-.51-1.86,2.42-4.77,3.74-4.67l0-.1c.6-.12,1-.76.53-2.34-.35-.93-.82-2-1.27-3.12-.46-.51-.92-1-1.36-1.54.24,0,.48-.1.14-.77-.57-1.74-2-3.31-3.66-5.56-.79-.95-1.68-2.62-2.55-3.55l.4-.09c-.64-1-.06.76-1-.9.37.29.11-.39.27-.43-.93-1.29-.77-.21-1.62-1.52-.13-.35,1.54,1.54.48-.1-.21-.33-.37-.29-.45-.28.06-.75-.75-2.44-2.28-4,.15,0,.78.54.77.23l0,0c-.1,0-.44-.27-.51-.25l.28-.06-.49-.65c-.19-.17-.35-.29-.43-.28l.19,0c-.39-.5-.77-1-1.13-1.43a29.69,29.69,0,0,0-2.18-2.34A5.29,5.29,0,0,0,1128.81,433.22Z"/>
          <path class="cls-4" d="M1138.11,442.16c-1,6.55-4.35,8.23-9,7.17,3.06,4.47,3,8.65,0,12.55,5.45,1,9.35-.81,10.76-7.17h12.55c-.85-4.63-5-5.87-10.76-5.38,1.32-3.55,0-6.52-3.59-9"/>
        </g>
        <g>
          <path class="cls-2" d="M1136.3,376.56c.4.61,1.66.6.52,1.82-1.85,1.79-3.86,3.08-5.79,4.71a13.68,13.68,0,0,0-4.46,5.8l.9.83a56.09,56.09,0,0,0-4.85,8.65c-.27,1.32-.45,2.44-.62,3.66s-.29,2.46-.39,3.74a48.39,48.39,0,0,0,.07,8.23c.43-.16.82-.24,1,.33.38,2.17.36,6.42,1.52,10.34.26.56.5,1.12.78,1.64a1.29,1.29,0,0,0,1.09.27c.61,1.69,1.25,3.16,1.88,4.52l.4.55a32,32,0,0,0,11.17,8.88,33.77,33.77,0,0,0,3.24,1.37,29.48,29.48,0,0,0,3,.92,37.51,37.51,0,0,0,5.83,1,42.35,42.35,0,0,0,5.62.13,39.88,39.88,0,0,0,6.58-.57,38.84,38.84,0,0,0,6.12-1.52,35.43,35.43,0,0,0,5.53-2.46,42.86,42.86,0,0,0,6.62-6.77,30,30,0,0,0,4.9-6.36,17.71,17.71,0,0,0,1.92-5.93,4.09,4.09,0,0,1-2.69-1.69c-.83-.92-1.65-2.05-2.59-3a8.87,8.87,0,0,0-3.16-2.21,4.5,4.5,0,0,0-3.25-.06,8.6,8.6,0,0,0-1.11-2.65c-.53-.76-1.17-1.24-1.78-1.07-3.68,1-8.35,1.57-10.65,2.34-1.34-.63-3.15-4.13-4.24-4.12-.88,0-.68,1-.51,1.93s.29,1.88-.55,1.9c.85.85,1.61,1.63,2.27,2.33l.49.52s0,0,0,0l-.06,0c-.08,0-.14,0-.15,0s.11-.15.28-.06.26.49,0,.46a1.08,1.08,0,0,1-.14.59s0,0,0,.06v0s0,0,0,0c-.24,0-.46,0-.71,0-.49,0-1,0-1.5-.09l-.74-.11c-.21-.06-.47-.09-.67-.15a4.75,4.75,0,0,1-.56-.15c-.1,0-.14,0-.24,0a3.49,3.49,0,0,1-.46-.15,3.38,3.38,0,0,1-.43-.3,2,2,0,0,1-.36-.53,2.83,2.83,0,0,1-.11-.31.69.69,0,0,1,0-.22c0-.14,0-.28-.06-.47a21.53,21.53,0,0,1,.49-5.58,9.89,9.89,0,0,1,1-3.37l0,0-.46-.28-.39-.25c-.28-.2-.43-.29-.64-.45l0,0-.65-.48h0l0,0,.06,0,.11.1.16.15c.06.08.2.22.3.33l.26.35a6.88,6.88,0,0,1,.61,1l.15.28s0,0,0,0,0,0,0,0l.45-.3a8.39,8.39,0,0,0,.71-.54,4.21,4.21,0,0,1,1.07-.69,8.64,8.64,0,0,1,4.18-1.41c-.07-.89-.17-1.79-.28-2.62,1.18.76,2.26,1.82,3.22,1.68,1.85.53,2.86.31,3.5-.64a12.11,12.11,0,0,0,1.15-4.12c0-.87.54-1.39,1.08-1.95a2,2,0,0,0,.55-2.43,30.09,30.09,0,0,1,2.91,3c.5-.33-.49-1.18-1.38-1.93s-1.7-1.44-.63-1.81c1,1.4,2.79,2.18,3.88,3.54.41-.74-.49-2-1.44-3.09s-1.91-2.06-1.31-2.58c.51.18,1.18,1.43,1.79,2.51s1.24,2,2.09,1.44c.34-.21-.86-1.61-1.53-2.27,2.28,1.77,4.1,3.15,5.27,3.36s1.74-.78.71-3.69c1.29,1.58,2.24,4.3,3.52,5.9v0a37.31,37.31,0,0,0-1.69-3.41c.67,1,1.3,2,1.9,3a8.31,8.31,0,0,0,.35-1,9.37,9.37,0,0,0-1.17-2.53c.45.67.9,1.34,1.32,2a12.73,12.73,0,0,0,.32-2.76c-.69-3.15-1.43-6.71-2.71-8a38.68,38.68,0,0,0-20.7-12.37,35.82,35.82,0,0,0-13.65-.22A33.76,33.76,0,0,0,1136.3,376.56Z"/>
          <path d="M1140.29,385.36c4.09,0,6.87,2.12,8.27,6.3l1,3,2.06-2.41a12.44,12.44,0,0,1,9.69-4.44,14.82,14.82,0,0,1,12.42,6.79c2.44,3.94,2.45,8.78,0,13.61l-1.55,3.1,3.42-.52a17.33,17.33,0,0,1,2.67-.22c4,0,6,1.68,6,5,0,5.64-6.21,14.64-13.56,14.64a10,10,0,0,1-6.7-2.82l-2.73-2.44-.25,3.66c-.29,4.4-2.53,9.65-11.5,9.65-10.3,0-22.25-7.13-24.6-14.66-1.45-4.68.78-9.09,6.64-13.12l3-2-3.41-1.14c-4.07-1.35-8.76-4-8-8.95,1-6.21,10-13,17.14-13m0-1.8c-12.85,0-29.87,18.76-9.75,25.47-20,13.77,2.79,31,19,31,7,0,12.75-3.21,13.29-11.32a11.75,11.75,0,0,0,7.89,3.27c12.75,0,23-23.23,7.6-23.24a18.81,18.81,0,0,0-2.94.25c6.44-12.89-3.79-23-14-23a14.27,14.27,0,0,0-11,5.07c-1.8-5.42-5.65-7.54-10-7.54Z"/>
          <path class="cls-3" d="M1146.34,394.71a12.94,12.94,0,0,1,1,1.5c.18.71-1.32-1.21-1.14-.5l.63,1c-.43-.31-1-.75-1.42-1.1a3.43,3.43,0,0,0-.43,1.3,7.6,7.6,0,0,1,.52.82c0,.35-.35.12-.6.14l0,.22c.12.22.35.57.48.78a.63.63,0,0,1-.37-.09c.4,2.51,1,5.35,1.52,8.22a17.83,17.83,0,0,1,.86,2.61c0,.57-.84.18-1.2.26,2.33,3.41,2.76,5.56,5.21,8.95-.24.05-.6.13,0,1.11,1.89,2.95,4,6.42,4.65,8.51.07.54-1-.49-.72.15.51,1,1.62,1.89,2.13,2.9,2.17.09,2.73-2.11,4.22-3.06-.51-1.86,2.43-4.77,3.74-4.67a.41.41,0,0,0,0-.09c.6-.13,1-.77.54-2.35-.36-.93-.83-2-1.27-3.12-.46-.51-.92-1-1.36-1.54.24-.05.48-.1.14-.77-.58-1.74-2-3.31-3.66-5.56-.79-.95-1.69-2.62-2.55-3.55l.39-.09c-.63-1,0,.76-1-.9.37.29.11-.39.27-.43-.92-1.29-.77-.21-1.61-1.52-.13-.35,1.53,1.54.48-.1-.21-.33-.37-.29-.45-.28.06-.75-.76-2.44-2.29-4,.16,0,.79.54.77.23l0,0c-.1,0-.43-.27-.51-.25l.28-.06c-.16-.22-.32-.44-.49-.65s-.35-.29-.42-.28l.19,0c-.39-.5-.77-1-1.14-1.43a30.35,30.35,0,0,0-2.17-2.34A5.28,5.28,0,0,0,1146.34,394.71Z"/>
          <path class="cls-4" d="M1155.64,403.65c-1,6.55-4.35,8.23-9,7.17,3,4.47,3,8.65,0,12.55,5.45,1,9.35-.81,10.75-7.17H1170c-.85-4.63-5-5.87-10.75-5.38,1.31-3.55,0-6.52-3.59-9"/>
        </g>
        <g>
          <path class="cls-2" d="M1190.34,465.11c0-.73-.13-1.44.12-1.79.42-.31.78.14,1,.64s.4,1,.8.72l.41-1.09a1.85,1.85,0,0,1,.32,1,1,1,0,0,1-.09.45l0,.07.24-.37.47-.7a14.07,14.07,0,0,1,1.55-1.88l.61-.57-.07.07-.13.1a3.17,3.17,0,0,1-.4.29,7.22,7.22,0,0,1-2.32.94l.18,0c.32,0-.07.21-.22.29l.19.09.9.22c-.08.1-.18.1-.34.14a3.34,3.34,0,0,1,.25,2.76,10,10,0,0,1-2,3.83,16.05,16.05,0,0,1-10,5.33,11.29,11.29,0,0,1-6.09.93,10,10,0,0,1-3.91-2.35,21.92,21.92,0,0,1-2.76-3.4,3.63,3.63,0,0,1-2.7,1,7.88,7.88,0,0,1-1.62-.2c-.55-.14-1.1-.33-1.66-.53-2.22-.77-4.37-2-5.94-.31l-.74-2.09c-.22-.74-.45-1.47-.7-2.13-.4-1.33-.89-2.34-1.47-2.35a8.38,8.38,0,0,1-5.66-2.12,10.3,10.3,0,0,1-2.51-3.63,13.06,13.06,0,0,1-.89-2.77,17.61,17.61,0,0,1-.42-3.53,12.31,12.31,0,0,1,.67-3.25c.19-.56.39-1.12.61-1.67s.5-1.08.75-1.59.5-1,.72-1.45.49-.87.7-1.25a4.93,4.93,0,0,0,.68-1.78.59.59,0,0,0-.73-.51c-.16,0-.45.21-.71.39s-.57.45-.86.69c-1.19,1-2.33,2.1-2.34.73a40,40,0,0,0-3.38,23.45,42.08,42.08,0,0,0,28.65,33.77,48.2,48.2,0,0,0,21.88,2c.62-.21,1.45-.46,2.48-.75s2.23-.72,3.59-1.18a50.63,50.63,0,0,0,9.51-4.62,43.14,43.14,0,0,0,10.31-9,38.38,38.38,0,0,0,4.44-6.7,34.94,34.94,0,0,0,1.75-3.93,33.87,33.87,0,0,0,.6-22.25,30.74,30.74,0,0,0-7.15-12,30.91,30.91,0,0,0-3.25-2.92,37.16,37.16,0,0,0-11.91-6.08,48.12,48.12,0,0,0-8.67-1.78l-1.62,0a34.32,34.32,0,0,0-15.25,2.7,30.77,30.77,0,0,0-6.8,4.06c-.5.41-1,.81-1.44,1.23s-.91.88-1.34,1.32a23.6,23.6,0,0,0-2.18,2.69,29.1,29.1,0,0,0-3.82,11,20.13,20.13,0,0,1,3.93-2.76c-2,2.73-3.34,5.95-3,7.41-.22,3.69.81,4.54,1.91,4.31a7.92,7.92,0,0,0,2-.86,14.2,14.2,0,0,1,2.36-1.1c.81-.53,1.5-.13,2.24.15a2.34,2.34,0,0,0,2.43-.21,18.31,18.31,0,0,0-1.14,3.24c.56.19.61-.85.85-1.76s.62-1.68,1.32-.89c-.89,1-.6,2.56-.8,3.75a1.23,1.23,0,0,0,.91-.69,11.21,11.21,0,0,0,.63-1.25c.39-.87.9-1.6,1.56-1.21.06.35-.72.86-1.25,1.5a2,2,0,0,0-.48.94c0,.29.17.53.64.66s.63-.92.82-1.42c-.18,1.68.4,2.9,1.21,3.31a1.69,1.69,0,0,0,1.33.1,6.22,6.22,0,0,0,1.58-.83c-.15.56-1,1.6-.56,2.31h0a3.07,3.07,0,0,1,.18-.69,2.6,2.6,0,0,0,.21-.64,9.43,9.43,0,0,0,0,1.19l.78-.31a1.82,1.82,0,0,0,.39-.81c0,.22,0,.45,0,.67.58-.24,1.22-.45,1.77-.62,1.25-.69,3.15-.51,3.22-.65a7.14,7.14,0,0,1,1-.75,1.54,1.54,0,0,1,.91-.21A13.52,13.52,0,0,1,1190.34,465.11Z"/>
          <path class="cls-5" d="M1185.94,475.82c.17-.32.18-.72.5-.75.92.09,1,1.49,1.89,1.57l.32-.49c.47.53.94,1.14,1.44,1.7,1.19.52,2.4,1,3.63,1.41.07-.2.14-.39.29-.4l0,0,13.74,3.23L1206,472a11.77,11.77,0,0,1,.18-2.3l-.1-.39a1,1,0,0,0-.45-.14,6.94,6.94,0,0,1,.13-1.08,50.12,50.12,0,0,0-2.31-6.3l-.17-.39-.2-.55-.43-1.12c-.27-.73-.59-1.44-.89-2.12a34,34,0,0,0-2-3.77c-.41-.37-.82-.71-1.2-1a7.15,7.15,0,0,1-1-1c-.38-.55-.73-1.28-1.26-1.95a4.51,4.51,0,0,0-2-1.46,2.44,2.44,0,0,1-.9,1.19c-.42.37-.91.69-1.35,1.13a5.58,5.58,0,0,0-1.19,1.62,5.07,5.07,0,0,0-.54,1.83c-.57.13-1.4.53-1.49,1.24-.31,2.15-.86,4.77-1,6.05,0,.17-.15.09-.28,0a.35.35,0,0,0-.16-.06l-.24.11a.51.51,0,0,0-.22.18.37.37,0,0,0,.12.42c.11.12.48.15.7.22a5.73,5.73,0,0,1,.33.83c.13.29,0,.35,0,.19s.25-.27.25-.17a.74.74,0,0,1,.38-.05l.09,0s0,0,0,.05,0,.19.08.28c.1.4.19.84.29,1.31a33.15,33.15,0,0,1,.51,6.4l11.76-6.79a81.24,81.24,0,0,1-7.22-3.87l-.31-.13a14.15,14.15,0,0,0-5.91-2.13c-.93.07-1.91.22-2.88.36.17.48.32.94.43,1.37-.7-.41-1.41-.82-1.86-.64-1.94,0-1.54,1.36-1.6,2.92.14.77-.87,1.31-.49,2.21l-1.17-.69c-.32.49,1.62.5.85,1.18-.36-.44-1-.39-1.51-.66-.2.79,1.53,1.12,1.09,1.78-.34,0-.86-1.65-1.4-.83-.11.16.36.44.59.58-1.62-.5-2.86-.1-2,1.54-.45-.27-.93-1-1.49-1.11h0c.23.16.57.56.79.69l-.82-.48c0,.14,0,.29,0,.43a1.85,1.85,0,0,0,.54.54l-.55-.32a6.28,6.28,0,0,0,.06,1.06c.38.9.59,2.05.94,2.26A83.43,83.43,0,0,0,1185.94,475.82Z"/>
          <g>
            <path class="cls-4" d="M1187.17,441.69c-7.17-12.55-34.06-5.38-21.51,10.75-19.56,7-6.57,29.74,10.75,25.1-1.79,17.93,30.48,25.1,30.48,0,10.76,1.79,16.14-14.34,1.79-21.51C1214.06,443.48,1205.1,432.72,1187.17,441.69Z"/>
            <path class="cls-4" d="M1196.93,455.47c-3.71-1.84-6.88-1-9.58,2.14a.36.36,0,0,1-.42.08c-2.26-.94-13.84.94-14.1,8.66a.22.22,0,0,0,.34.18c4.13-3,8.23-5,12.21-1.54v8.09a.73.73,0,0,0,.86.72c4.19-.85,7.06-3,8.1-7l3.47,7a.09.09,0,0,0,.16,0c.87-5.26,1.36-10.45-5.42-14.09l4.43-2.95A.7.7,0,0,0,1196.93,455.47Z"/>
          </g>
        </g>
        <g>
          <path class="cls-2" d="M1199.52,395c0-.73-.13-1.45.12-1.79.42-.31.78.14,1,.64s.4,1,.8.72l.41-1.09a1.84,1.84,0,0,1,.32,1,.93.93,0,0,1-.09.45l0,.08.24-.38.47-.7a14.55,14.55,0,0,1,1.55-1.87l.61-.57-.07.06-.13.11a4.62,4.62,0,0,1-.4.29,7.45,7.45,0,0,1-2.32.94l.18,0c.31,0-.07.21-.22.29l.19.09.9.21c-.08.11-.18.11-.34.15a3.42,3.42,0,0,1,.25,2.76,10,10,0,0,1-2,3.83,16,16,0,0,1-10,5.32,11.21,11.21,0,0,1-6.09.94,9.92,9.92,0,0,1-3.91-2.36,21.88,21.88,0,0,1-2.76-3.39,3.65,3.65,0,0,1-2.7,1,7.88,7.88,0,0,1-1.62-.2c-.55-.14-1.1-.33-1.66-.53-2.22-.77-4.37-2-5.94-.31-.23-.64-.48-1.37-.74-2.09s-.45-1.48-.7-2.13c-.4-1.33-.89-2.34-1.47-2.36a8.36,8.36,0,0,1-5.66-2.11,10.54,10.54,0,0,1-2.52-3.63,13.57,13.57,0,0,1-.88-2.78,17.42,17.42,0,0,1-.42-3.52,11.85,11.85,0,0,1,.67-3.25c.19-.56.39-1.12.61-1.67s.5-1.08.75-1.59l.72-1.45.7-1.25a4.87,4.87,0,0,0,.67-1.78.57.57,0,0,0-.72-.51c-.16,0-.45.21-.71.39s-.57.44-.86.69c-1.19,1-2.34,2.1-2.34.73a39.91,39.91,0,0,0-3.38,23.45,42.08,42.08,0,0,0,28.65,33.77,48.2,48.2,0,0,0,21.88,2c.62-.21,1.45-.46,2.47-.75s2.24-.72,3.6-1.18a50.63,50.63,0,0,0,9.51-4.62,43.14,43.14,0,0,0,10.31-9,38.1,38.1,0,0,0,4.44-6.71,34.09,34.09,0,0,0,2.35-26.17,31.2,31.2,0,0,0-4.15-8.38,29.81,29.81,0,0,0-6.25-6.56,37.16,37.16,0,0,0-11.91-6.08,46.34,46.34,0,0,0-8.68-1.78l-1.61,0a34.29,34.29,0,0,0-15.25,2.7,30.77,30.77,0,0,0-6.8,4.06c-.5.41-1,.81-1.44,1.23s-.91.88-1.34,1.32a23.6,23.6,0,0,0-2.18,2.69,29.1,29.1,0,0,0-3.82,11,19.71,19.71,0,0,1,3.93-2.76c-2,2.73-3.34,5.94-3,7.41-.22,3.69.81,4.53,1.91,4.31a7.92,7.92,0,0,0,2-.86,14.2,14.2,0,0,1,2.36-1.1c.81-.53,1.5-.13,2.24.14a2.31,2.31,0,0,0,2.43-.2,17.55,17.55,0,0,0-1.14,3.24c.56.19.61-.85.85-1.76s.62-1.68,1.32-.9c-.89,1-.6,2.57-.8,3.76a1.24,1.24,0,0,0,.91-.69,11.21,11.21,0,0,0,.63-1.25c.39-.87.9-1.6,1.56-1.21.06.34-.72.86-1.25,1.5a2,2,0,0,0-.48.94c0,.29.17.53.64.66s.62-.92.82-1.42c-.18,1.68.4,2.9,1.21,3.31a1.69,1.69,0,0,0,1.33.1,6.22,6.22,0,0,0,1.58-.83c-.15.56-1,1.6-.56,2.31h0a3.07,3.07,0,0,1,.18-.69,3.12,3.12,0,0,0,.21-.64,9.29,9.29,0,0,0,0,1.18l.78-.3a1.87,1.87,0,0,0,.39-.81c0,.22,0,.44,0,.67.58-.24,1.22-.45,1.77-.62,1.25-.69,3.15-.51,3.22-.65a5.91,5.91,0,0,1,1-.75,1.47,1.47,0,0,1,.91-.21A13.52,13.52,0,0,1,1199.52,395Z"/>
          <path class="cls-5" d="M1195.12,405.75c.17-.32.18-.73.5-.75.91.09,1,1.48,1.89,1.57l.32-.49c.47.53.94,1.13,1.43,1.7,1.2.52,2.41,1,3.64,1.41.07-.21.14-.39.29-.4h0L1217,412l-1.81-10.13a11.72,11.72,0,0,1,.18-2.3l-.1-.39a1,1,0,0,0-.45-.14,8.28,8.28,0,0,1,.12-1.08,49.22,49.22,0,0,0-2.3-6.31l-.17-.38-.2-.55-.43-1.12c-.27-.74-.59-1.44-.89-2.13a34.73,34.73,0,0,0-2-3.76c-.41-.37-.83-.71-1.2-1a6.58,6.58,0,0,1-1-.95c-.38-.55-.73-1.28-1.26-1.95a4.51,4.51,0,0,0-2-1.46,2.41,2.41,0,0,1-.9,1.18c-.42.37-.91.7-1.35,1.14a5.67,5.67,0,0,0-1.19,1.61,5.18,5.18,0,0,0-.54,1.84c-.57.13-1.4.53-1.49,1.24-.31,2.15-.87,4.77-1,6.05,0,.17-.15.09-.28,0a.35.35,0,0,0-.16-.06,1,1,0,0,0-.24.11.51.51,0,0,0-.22.18.37.37,0,0,0,.12.42c.11.12.48.15.7.21a6.34,6.34,0,0,1,.33.84c.13.29,0,.35,0,.18s.25-.27.25-.16a.73.73,0,0,1,.38-.05l.09,0s0,0,0,.05,0,.19.08.28c.1.4.19.84.28,1.31a32.35,32.35,0,0,1,.52,6.4l11.76-6.8a79.17,79.17,0,0,1-7.22-3.86l-.31-.14a14.32,14.32,0,0,0-5.91-2.12c-.93.07-1.91.22-2.89.36a13.43,13.43,0,0,1,.44,1.37c-.7-.41-1.41-.83-1.86-.64-1.94,0-1.55,1.36-1.6,2.92.14.76-.87,1.31-.49,2.21l-1.17-.69c-.32.49,1.62.5.85,1.18-.36-.44-1-.39-1.51-.67-.2.79,1.52,1.13,1.09,1.79-.34,0-.86-1.65-1.4-.83-.11.16.36.44.59.58-1.62-.51-2.86-.1-2,1.54-.45-.27-.93-1-1.49-1.12v0c.23.16.57.56.79.69l-.82-.49c0,.15,0,.29,0,.44a1.74,1.74,0,0,0,.54.54l-.55-.32a6.11,6.11,0,0,0,.06,1.05c.38.91.59,2.06.94,2.26A83.53,83.53,0,0,0,1195.12,405.75Z"/>
          <g>
            <path class="cls-4" d="M1196.35,371.61c-7.17-12.55-34.06-5.37-21.51,10.76-19.56,7-6.57,29.74,10.75,25.1-1.79,17.93,30.48,25.1,30.48,0,10.76,1.79,16.13-14.34,1.79-21.51C1223.24,373.41,1214.28,362.65,1196.35,371.61Z"/>
            <path class="cls-4" d="M1206.11,385.4c-3.71-1.84-6.88-1-9.58,2.13a.33.33,0,0,1-.42.08c-2.26-.93-13.84.95-14.1,8.67a.22.22,0,0,0,.34.18c4.13-3,8.23-5,12.21-1.54V403a.73.73,0,0,0,.86.72c4.19-.85,7.06-3,8.1-7l3.47,6.94a.08.08,0,0,0,.16,0c.87-5.27,1.36-10.45-5.42-14.09l4.43-3A.7.7,0,0,0,1206.11,385.4Z"/>
          </g>
        </g>
        <g>
          <path class="cls-2" d="M1280.24,481.5s0,.08,0-.05a.73.73,0,0,1,.07-.21h0l-.46,1.44h0v0h0s0-.11.08-.16l.18-.29,0,0a6.61,6.61,0,0,1,1.33-1.36,7.63,7.63,0,0,1,1.57-1,4.31,4.31,0,0,1,.53-.2l.2-.06h0a1.25,1.25,0,0,1-.17,0,5.22,5.22,0,0,1-.6,0h-.34c-.26,0-.57-.09-.79-.12l-.31-.08-.09,0,0,0h0l2.2.63h0l-.09-.05a3.11,3.11,0,0,1-.38-.25,2.76,2.76,0,0,1-.64-.78,4.62,4.62,0,0,1-.46-2.52,12.42,12.42,0,0,1,3.11-6.73l.46-1.05a.68.68,0,0,0,0-.4c-.34-1.14-.53-1.93-.65-2.53a6,6,0,0,1-.11-2.23c.06-.3.15-.23-.21.13a7.59,7.59,0,0,1-1.77,1.21l-.44.23-.35.18s0,0,0,0a1,1,0,0,1,.08.19c.16.45.35,1.13.49,1.71.29,1.21.51,2.43.82,3.45,3.75-1.76,7.46,2.37,11-.06.42,1.36,1,3.4,2.17,3.09,3.4-.92,7.57-1.31,10.87,1.49,1,1.21.4,3.85,1.25,4.09,1.34.38,1.64-2.65,3-2.28a103.59,103.59,0,0,0-5.38-15.38l-1.59-3.74-.53-1.24a24.5,24.5,0,0,0-2-3.79,20.93,20.93,0,0,0-6-6.21,19.94,19.94,0,0,0-4.94-2.44,20.16,20.16,0,0,0-4.87-1,21.13,21.13,0,0,0-3.87.05,23.07,23.07,0,0,0-2.79.48,23.33,23.33,0,0,0-3.31,1.06c-1,.43-2,.86-3,1.35a51.32,51.32,0,0,0-5.93,3.33c-1,1.28-4,3.65-7.42,7.87a39.64,39.64,0,0,0-4.91,7.84c-.37.78-.72,1.58-1,2.43a26.23,26.23,0,0,0-.87,2.59c-.13.46-.27.86-.38,1.37l-.34,1.53a29.53,29.53,0,0,0-.45,3.05,32,32,0,0,0,5.86,21.74,28.63,28.63,0,0,0,7.65,7.33c.68.46,1.4.84,2.06,1.21a16.16,16.16,0,0,0,2,1c.63.28,1.24.53,1.81.75s1,.36,1.52.51.92.2,1.39.28a24.27,24.27,0,0,0,12.72-.37,18.43,18.43,0,0,0,8.13-4.83,23.87,23.87,0,0,0,3.16-6,19.68,19.68,0,0,1-3-.36c1.55-.94,3-1.93,3-2.92.85-1.81.43-2.77-.42-3.46a29.41,29.41,0,0,0-3.62-1.83c-1.43-.44-1.73-2.6-3.5-2.82.74-.5,1.12-.75,1.85-1.3-.66-.94-1.78,2.22-2.48.32.94-.17,1.23-1.32,1.92-1.86-1.26-1-2.69,1.47-3.54.12.1-.51,3.18.17,2-1.44-.24-.32-.91.2-1.25.42a3.57,3.57,0,0,0,.88-3c-.26-.85-1.12-1.41-2.65-1.48.6-.44,2-.59,2.43-1.38l0,0c-.35.24-1.16.46-1.46.68l1.12-.9L1289,476a2.29,2.29,0,0,0-1.09.39l.73-.59c-.61-.3-1.22-.56-1.82-.79-1.64-.2-3.52-1-3.9-.77a20.39,20.39,0,0,1-2.34,1,4.09,4.09,0,0,1-1.41.21c-.06,0-.08-.06-.11-.08h0c0,.07.1.33.14.42.1.26.19.52.28.79s.16.54.23.82l.09.42.09.3a8.93,8.93,0,0,1,.25,1.31A6.42,6.42,0,0,1,1280.24,481.5Z"/>
          <path class="cls-4" d="M1285.12,467.26c-1.79-14.35-37.65-9-21.51,9C1246.32,519.86,1341.39,486.27,1285.12,467.26Z"/>
          <path class="cls-5" d="M1273.91,485c0-.36.06-.72.1-.88.1-.34,0,.88.11.54l.09-.58c0,.26,0,.58,0,.87a2,2,0,0,0,.35-.36c.05-.21.09-.4.12-.47s.09.07.14.14l.05-.09.13-.44a.31.31,0,0,1,0,.16,12.9,12.9,0,0,1,2.66-3.09,6.11,6.11,0,0,1,1-1c.29-.1.33.38.46.53,1-1.79,2.11-2.3,3.19-4.09.14.14.33.37.69-.09,1.06-1.39,2.39-2.94,3.61-3.32.37,0,.23.82.53.61.48-.33.53-1.17,1-1.5a6.45,6.45,0,0,0-2.56-2.09c-1-.47-2-.82-3-1.26-.52.27-1.93,0-3.36-.18a20.46,20.46,0,0,1-3.5-.7l-.11,0a1.88,1.88,0,0,0-2.08.72,13.52,13.52,0,0,0-.71,1.67c.12.34.23.67.32,1-.23,0-.46-.08-.53.3-.43.91-.06,1.93.15,3.32.14.61,0,1.56.23,2.18l-.26-.06c0,.59.3-.32.27.65-.1-.23-.19.14-.28.12.09.79.34.27.36,1.06,0,.17-.31-1.05-.27-.08,0,.2.1.22.15.23a3.2,3.2,0,0,0,0,2.3c-.07,0-.2-.43-.26-.29v0s.11.22.15.24l-.13,0,.07.4c0,.12.07.22.1.23l-.08,0c.05.31.1.62.15.9.13.62.24,1.54.27,1.56C1273.52,484.61,1273.71,484.94,1273.91,485Z"/>
        </g>
        <g>
          <path class="cls-2" d="M1280.24,415.17s0,.08,0-.05a.73.73,0,0,1,.07-.21h0l-.46,1.44h0v0s0-.1.08-.16l.18-.28,0,0a6.6,6.6,0,0,1,1.33-1.35,7.21,7.21,0,0,1,1.57-.95,4.7,4.7,0,0,1,.53-.21l.2-.05h0l-.17,0a5.22,5.22,0,0,1-.6,0l-.25,0h-.09a6,6,0,0,1-.79-.11l-.31-.08-.09,0h-.06c-2-.56,2.68.78,2.2.64h0l-.09-.05a2.33,2.33,0,0,1-.38-.26,2.63,2.63,0,0,1-.64-.78,4.56,4.56,0,0,1-.46-2.51,12.42,12.42,0,0,1,3.11-6.73l.46-1.05a.71.71,0,0,0,0-.41c-.34-1.13-.53-1.92-.65-2.53a5.9,5.9,0,0,1-.11-2.22c.06-.3.15-.23-.21.13a7.93,7.93,0,0,1-1.77,1.21l-.44.23-.35.18s0,0,0,0a1,1,0,0,1,.08.19c.16.45.35,1.13.49,1.71.29,1.2.51,2.43.82,3.45,3.75-1.77,7.46,2.37,11-.06.42,1.36,1,3.4,2.17,3.09,3.4-.92,7.57-1.31,10.87,1.49,1,1.21.4,3.85,1.25,4.09,1.34.37,1.64-2.66,3-2.28a103.59,103.59,0,0,0-5.38-15.38l-1.59-3.74-.53-1.24a24.5,24.5,0,0,0-2-3.79,20.82,20.82,0,0,0-6-6.21,20.33,20.33,0,0,0-4.94-2.45,20.65,20.65,0,0,0-4.87-1,21,21,0,0,0-3.87.06,23.07,23.07,0,0,0-2.79.48,25,25,0,0,0-3.31,1c-1,.43-2,.86-3,1.36a49.87,49.87,0,0,0-5.93,3.33c-1,1.28-4,3.64-7.42,7.87a39.64,39.64,0,0,0-4.91,7.84c-.37.78-.72,1.58-1,2.43a26.23,26.23,0,0,0-.87,2.59c-.13.46-.27.86-.38,1.37l-.34,1.52a29.53,29.53,0,0,0-.45,3.05,32,32,0,0,0,5.86,21.75,29,29,0,0,0,7.65,7.33c.68.45,1.4.84,2.06,1.21a16.16,16.16,0,0,0,2,1c.63.28,1.24.53,1.81.75s1,.35,1.52.51.92.2,1.39.28a24.27,24.27,0,0,0,12.72-.37,18.43,18.43,0,0,0,8.13-4.83,23.92,23.92,0,0,0,3.16-6,21,21,0,0,1-3-.35c1.55-.94,3-1.94,3-2.93.85-1.81.43-2.77-.42-3.45a29.32,29.32,0,0,0-3.62-1.84c-1.43-.43-1.73-2.59-3.5-2.81.74-.5,1.12-.76,1.85-1.3-.66-.94-1.78,2.22-2.48.32.94-.17,1.23-1.33,1.92-1.86-1.26-1-2.69,1.46-3.54.11.1-.5,3.18.18,2-1.43-.24-.32-.91.19-1.25.42a3.58,3.58,0,0,0,.88-3c-.26-.86-1.12-1.41-2.65-1.48.6-.44,2-.6,2.43-1.39h0c-.35.24-1.16.46-1.46.68l1.12-.9-.75-.42a2.41,2.41,0,0,0-1.09.4l.73-.59c-.61-.3-1.22-.56-1.82-.79-1.64-.21-3.52-1-3.9-.77a18.51,18.51,0,0,1-2.34,1,3.92,3.92,0,0,1-1.41.22c-.06,0-.08-.07-.11-.08h0c0,.07.1.33.14.42.1.25.19.52.28.79s.16.54.23.82l.09.41.09.31a8.93,8.93,0,0,1,.25,1.31A6.42,6.42,0,0,1,1280.24,415.17Z"/>
          <path class="cls-4" d="M1285.12,400.92c-1.79-14.34-37.65-9-21.51,9C1246.32,453.52,1341.39,419.94,1285.12,400.92Z"/>
          <path class="cls-5" d="M1273.91,418.69c0-.36.06-.72.1-.89.1-.33,0,.89.11.55l.09-.58c0,.26,0,.58,0,.86a1.63,1.63,0,0,0,.35-.35c.05-.21.09-.4.12-.48s.09.07.14.15l.05-.09.13-.44a.31.31,0,0,1,0,.16,12.9,12.9,0,0,1,2.66-3.09,5.71,5.71,0,0,1,1-1c.29-.1.33.37.46.53,1-1.79,2.11-2.3,3.19-4.09.14.14.33.37.69-.09,1.06-1.39,2.39-3,3.61-3.33.37,0,.23.83.53.62.48-.33.53-1.17,1-1.51a6.42,6.42,0,0,0-2.56-2.08c-1-.48-2-.82-3-1.26-.52.27-1.93,0-3.36-.18a21.5,21.5,0,0,1-3.5-.7l-.11,0a1.86,1.86,0,0,0-2.08.72,13.52,13.52,0,0,0-.71,1.67c.12.33.23.67.32,1-.23,0-.46-.08-.53.3-.43.91-.06,1.92.15,3.32.14.61,0,1.56.23,2.18l-.26-.06c0,.58.3-.32.27.64-.1-.22-.19.15-.28.13.09.79.34.27.36,1.06,0,.17-.31-1-.27-.08,0,.2.1.22.15.23a3.19,3.19,0,0,0,0,2.3c-.07,0-.2-.43-.26-.29h0s.11.23.15.24l-.13,0,.07.4a.49.49,0,0,0,.1.23l-.08,0,.15.9c.13.62.24,1.54.27,1.56C1273.52,418.28,1273.71,418.6,1273.91,418.69Z"/>
        </g>
        <g>
          <path class="cls-2" d="M1273.08,442.19c-.39-.62-.92-1.12-.91-1.55a.39.39,0,0,1,.44-.29,2.16,2.16,0,0,1,.64.3,3.45,3.45,0,0,0,.53.38c.12.11.21.07.23-.1l-.29-1.13a1.63,1.63,0,0,1,.49.73l0,.23c0,.06,0,.22,0,0a3.35,3.35,0,0,1,0-.64,3.9,3.9,0,0,1,.06-.63l.25-1.05.22-.81c.16-.55.37-1.15.6-1.72a13.94,13.94,0,0,1,1.61-3,7.47,7.47,0,0,1,.75-.88l.28-.25.06-.05-.25.2-.07.05-.06,0a10,10,0,0,1-2.55,1.09c-.45.15-.9.27-1.42.39q-.45.12-.9.21l-1,.19-1.14.19-1.15.16s0,0,0,.08.14.13.22.22a4.71,4.71,0,0,0,.92.1,11.59,11.59,0,0,1-.3,1.63,1.3,1.3,0,0,0,.34.79l.34.53c.24.38.47.79.71,1.25l.35.72a8,8,0,0,0,.36.72,4.75,4.75,0,0,1,.56,1.44c.28,1.38-.37,2.3-1.23,3.45a13.84,13.84,0,0,1-1.71,1.73,3.17,3.17,0,0,1-.74.5l-1,.54c-.32.18-.74.38-1,.52l-.63.44a12.93,12.93,0,0,1-4.64,3.43,11.33,11.33,0,0,1-4,.31,4.89,4.89,0,0,1-3.4-1.14,5.76,5.76,0,0,1-2.8,2.23,5,5,0,0,1-2.81.11,10.42,10.42,0,0,0-2.35-.5,3,3,0,0,0-2.45,1.54c-.58-2.54-.92-6.72-2.06-6.47a6.36,6.36,0,0,1-5.52-1,11.06,11.06,0,0,1-2.82-3.35c-1-2-1.73-2.73-2.44-4.2-.77-2.25.26-6-.54-6.7-1.27-1.14-2.09,3.29-3.36,2.15.1,2.16.25,4.31.43,6.44l.07.8.12,1.23.35,3.2c.25,2.14.49,4.27.73,6.41a51.46,51.46,0,0,0,1,6.26,23.77,23.77,0,0,0,2,5.35,21.71,21.71,0,0,0,6.76,7.8,20.84,20.84,0,0,0,4.61,2.54,18.57,18.57,0,0,0,2.49.78l1.28.36,1.39.21c3.71.59,7.91.22,12-.2a109.12,109.12,0,0,0,12.44-2.1l1.94-.47,2.23-.59,3.08-.88,3-1c.69-.37,1.64-.84,2.84-1.38l1.9-1,1.07-.54,1.06-.64a25.57,25.57,0,0,0,4.49-3.31,21.52,21.52,0,0,0,6.1-9.52,16.08,16.08,0,0,0,.61-2.46c0-.86.09-1.74.13-2.62.2-3.5.4-7.17.6-10.91l.08-1.34v-1c0-.66,0-1.42,0-2.23a37.61,37.61,0,0,0-.57-5.85,27,27,0,0,0-2.61-7.75,24.42,24.42,0,0,0-2.65-4.07,24.14,24.14,0,0,0-3.41-3.44,26.42,26.42,0,0,0-6.94-4.1,29.69,29.69,0,0,0-6.15-1.75,34.49,34.49,0,0,0-10.78-.19,41.37,41.37,0,0,0-13.62,4.6l-1.31.85a34.79,34.79,0,0,0-10.52,9.95,30.07,30.07,0,0,0-3.16,5.88,25,25,0,0,0-1.55,5.4,38.27,38.27,0,0,0,.46,9.09,26,26,0,0,1,2.88-2.69c-.9,2.54-1.56,5.08-1,6.18.33,2.84,1.23,3.51,2.35,3.37s2.54-1.13,4.11-1.78c1.48-1.05,3,1.06,4.62-.62-.38,1.38-.54,2.08-.86,3.49.56.18.6-.93.75-1.92s.39-1.85,1.21-1.15c-.74,1.22-.33,2.86-.6,4.25,1.59-.26,1.47-4.66,3-4.08.08.39-.63,1.19-1.14,2s-.78,1.66.17,2c.37.11.66-1.22.82-1.88-.11,2.1.3,3.82,1,4.54s1.75.44,3.07-1.21c-.25,1.23-1.3,2.95-1.17,4.39h0c.14-.69.67-1.83.78-2.45-.13.76-.25,1.54-.37,2.33.28-.1.57-.21.85-.33a5.65,5.65,0,0,0,.66-1.7l-.24,1.52a18.7,18.7,0,0,0,2-1.08c1.46-1.62,3.53-2.85,3.74-3.64a27.86,27.86,0,0,1,3.62-7.57,12,12,0,0,1,.94-1.17l.22-.26a.93.93,0,0,0,.18-.16,2.77,2.77,0,0,1,.36-.31A11.55,11.55,0,0,1,1273.08,442.19Z"/>
          <path class="cls-5" d="M1267.18,453.11c0-.37-.1-.73.09-.89.55-.34,1.07.86,1.7.47v-.58a13.24,13.24,0,0,0,1.67.65,11.44,11.44,0,0,0,3.06-1.28c-.11-.19-.19-.36-.12-.47a15,15,0,0,1,2-.86l.24-.26a1,1,0,0,0-.14-.45,6.86,6.86,0,0,1,.81-.41,11.17,11.17,0,0,0,1.9-4.85,10.68,10.68,0,0,0-.49-5.11,11.41,11.41,0,0,0-.81-1c-.26-.3-.52-.56-.71-.82-.31-.59-.51-1.36-.83-2l-.22-.46-2-.7a1.92,1.92,0,0,0-.37-.11c0,2.07-1.15,3.05-1,5.15-.31-.06-.77-.14-.81.45-.12,1.75-.41,3.76-1.27,4.8-.33.23-.8-.52-.92-.17-.2.56.38,1.25.19,1.81a10.41,10.41,0,0,0,3.84.25l-2.36-7.43c.17-.13.13,0-.17,0a3.11,3.11,0,0,1-1.25-.15,4,4,0,0,1-.8-.35c-.24-.16-.09-.14.22.32.07.1.14.24.21.36a2,2,0,0,1,.09.2l0,.05-.87-2.21,0-.06,0-.14-.06-.22c0-.12-.09-.38-.12-.55l0-.16s0,0,0,0h0l0,0a.5.5,0,0,1-.14-.12l0,0c-.2-.11-.65,0-1.24.69-.29.45-.63,1-1,1.49l.12,1.06c-.25-.09-.51-.19-.69.15-.78.73-.69,1.81-.74,3.24,0,.64-.4,1.51-.25,2.19l-.5-.19c-.15.57.7-.15.36.75-.16-.26-.46,0-.66,0-.11.79.66.46.47,1.21-.16.15-.38-1.17-.63-.23,0,.19.15.27.26.31-.72.14-1.3,1-.93,2.14-.22-.08-.4-.55-.65-.47h0c.1.06.25.3.34.34l-.36-.14,0,.41a.5.5,0,0,0,.23.29l-.24-.09c0,.32,0,.64,0,.94.15.68.26,1.65.43,1.71A12,12,0,0,0,1267.18,453.11Z"/>
          <g>
            <path class="cls-4" d="M1265.35,429.61c-3.27-25.19,40.28-11.93,25.1,12.55,12.55,10.75-10.76,37.65-21.52,16.13C1236.66,487,1225.91,420.64,1265.35,429.61Z"/>
            <path class="cls-4" d="M1270.73,435v3.58c-9.47,1-12,3.33-12.46,6.06a.69.69,0,0,0,.93.75c5.93-2,10.59-1.31,13.18,3.67a.08.08,0,0,0,.15,0c.15-3.95,1.8-6.3,5.21-6.78a.38.38,0,0,0,.06-.73A12.74,12.74,0,0,1,1270.73,435Z"/>
          </g>
        </g>
        <g>
          <path class="cls-2" d="M1258.77,390.61c-.39-.62-.92-1.12-.91-1.55a.39.39,0,0,1,.44-.29,2.06,2.06,0,0,1,.64.3c.21.16.4.3.53.38s.21.07.24-.11l-.3-1.13a1.68,1.68,0,0,1,.5.74l0,.23c0,.06,0,.22,0,0a3.38,3.38,0,0,1,0-.64,5.68,5.68,0,0,1,.06-.63l.25-1c.07-.26.14-.53.22-.81a15.42,15.42,0,0,1,.61-1.72,13.1,13.1,0,0,1,1.61-3,6.64,6.64,0,0,1,.74-.88l.28-.25.06-.05-.25.2-.07.05-.06,0a10,10,0,0,1-2.54,1.09c-.46.15-.91.27-1.43.39l-.9.2-1,.19c-.38.08-.77.14-1.15.19l-1.15.17s0,0,0,.07.15.14.22.22a4.81,4.81,0,0,0,.92.11,12.55,12.55,0,0,1-.29,1.62,1.35,1.35,0,0,0,.33.8l.35.53c.23.37.46.79.7,1.24l.35.72c.12.25.24.54.36.73a4.65,4.65,0,0,1,.56,1.44c.28,1.38-.36,2.29-1.23,3.45a14.55,14.55,0,0,1-1.71,1.73,3.17,3.17,0,0,1-.74.5l-1,.54c-.32.18-.74.38-.94.52l-.64.44a13,13,0,0,1-4.63,3.43,11.37,11.37,0,0,1-4,.31,4.93,4.93,0,0,1-3.4-1.14,5.82,5.82,0,0,1-2.8,2.23,5,5,0,0,1-2.81.1,10.83,10.83,0,0,0-2.35-.49,3,3,0,0,0-2.45,1.54c-.58-2.54-.92-6.72-2.06-6.47a6.31,6.31,0,0,1-5.51-1,11,11,0,0,1-2.83-3.34c-1-2-1.72-2.73-2.44-4.21-.77-2.24.26-6-.54-6.69-1.27-1.15-2.09,3.29-3.36,2.14.1,2.17.25,4.31.43,6.45l.07.8.12,1.23.35,3.2c.25,2.14.49,4.27.74,6.4a49.47,49.47,0,0,0,1,6.27,23.51,23.51,0,0,0,2,5.34,21.9,21.9,0,0,0,2.81,4.19,22.4,22.4,0,0,0,4,3.62,21.32,21.32,0,0,0,4.62,2.54,18.89,18.89,0,0,0,2.48.78l1.28.35,1.4.21c3.7.6,7.91.23,12-.19a109.12,109.12,0,0,0,12.44-2.1l1.94-.47,2.24-.59,3.08-.88,3-1c.68-.36,1.63-.83,2.83-1.37l1.9-1,1.07-.53,1.06-.64a25.57,25.57,0,0,0,4.49-3.31,21.52,21.52,0,0,0,6.1-9.52,15,15,0,0,0,.61-2.46c0-.86.09-1.74.14-2.62.19-3.51.39-7.17.59-10.91l.08-1.35v-1c0-.67,0-1.42,0-2.24a38.93,38.93,0,0,0-.58-5.84,26.83,26.83,0,0,0-2.61-7.76,24.76,24.76,0,0,0-2.65-4.06,23.63,23.63,0,0,0-3.41-3.44,26.72,26.72,0,0,0-6.93-4.11,29.7,29.7,0,0,0-6.16-1.74,34.49,34.49,0,0,0-10.78-.19,41.22,41.22,0,0,0-13.62,4.6l-1.3.85a34.82,34.82,0,0,0-10.53,9.95,30.29,30.29,0,0,0-3.16,5.87,25.23,25.23,0,0,0-1.55,5.41,38.19,38.19,0,0,0,.46,9.08,26.88,26.88,0,0,1,2.88-2.68c-.9,2.54-1.56,5.08-1,6.18.33,2.83,1.23,3.51,2.35,3.36s2.54-1.13,4.11-1.77c1.49-1,3,1.06,4.62-.63-.38,1.38-.54,2.09-.86,3.5.56.18.6-.93.75-1.92s.39-1.85,1.21-1.16c-.74,1.23-.33,2.87-.6,4.25,1.59-.25,1.48-4.65,3-4.07.09.39-.63,1.19-1.14,2s-.78,1.66.17,1.95c.37.1.67-1.23.82-1.89-.11,2.1.3,3.83,1,4.55s1.75.43,3.06-1.21c-.25,1.23-1.29,2.95-1.17,4.39h0c.14-.69.67-1.84.78-2.45-.13.76-.25,1.54-.37,2.32a8.71,8.71,0,0,0,.85-.32,6,6,0,0,0,.67-1.7l-.25,1.52a20.72,20.72,0,0,0,2-1.08c1.47-1.63,3.54-2.85,3.74-3.65a28.31,28.31,0,0,1,3.62-7.57,13.45,13.45,0,0,1,.94-1.16l.22-.27.18-.15c.11-.11.24-.21.36-.31A10.72,10.72,0,0,1,1258.77,390.61Z"/>
          <path class="cls-5" d="M1252.87,401.52c0-.36-.09-.72.09-.89.55-.33,1.07.87,1.71.48v-.58a15,15,0,0,0,1.67.65,11.44,11.44,0,0,0,3.06-1.28c-.1-.19-.19-.37-.11-.48a16.34,16.34,0,0,1,2-.85l.24-.27a1,1,0,0,0-.14-.45,8.61,8.61,0,0,1,.81-.4,11.05,11.05,0,0,0,1.9-4.85,10.67,10.67,0,0,0-.49-5.11,11.41,11.41,0,0,0-.81-1c-.26-.3-.51-.56-.71-.82-.31-.59-.51-1.36-.83-2.05l-.22-.45-2-.7a2,2,0,0,0-.38-.11c0,2.07-1.15,3.05-1,5.14-.31,0-.78-.13-.82.45-.12,1.75-.41,3.77-1.26,4.8-.33.24-.81-.51-.93-.16-.2.56.38,1.25.19,1.81a10.85,10.85,0,0,0,3.84.25l-2.36-7.43c.17-.13.13,0-.17,0a3.32,3.32,0,0,1-1.25-.15,3.57,3.57,0,0,1-.8-.36c-.24-.15-.09-.13.22.33a2.31,2.31,0,0,1,.21.35l.09.2,0,.06-.87-2.21,0-.07,0-.14-.07-.22c0-.11-.09-.37-.12-.54l0-.16s0,0,0,0h0l0,0a.34.34,0,0,1-.14-.11l0,0c-.19-.12-.65,0-1.24.69-.29.44-.63,1-1,1.49l.12,1.06c-.25-.1-.5-.2-.69.15-.78.73-.69,1.81-.74,3.24,0,.64-.4,1.51-.25,2.18l-.5-.18c-.15.56.7-.16.36.75-.16-.26-.46,0-.66,0-.11.79.66.46.47,1.21-.16.15-.38-1.17-.63-.23,0,.19.15.27.26.3a1.53,1.53,0,0,0-.93,2.14c-.21-.07-.4-.54-.65-.47v0c.1.06.24.3.34.33l-.36-.13,0,.41a.5.5,0,0,0,.23.29l-.24-.09c0,.32,0,.64,0,.93.15.69.26,1.66.43,1.72A11.89,11.89,0,0,0,1252.87,401.52Z"/>
          <g>
            <path class="cls-4" d="M1251,378c-3.27-25.2,40.28-11.93,25.1,12.55,12.55,10.75-10.76,37.64-21.52,16.13C1222.35,435.39,1211.6,369.06,1251,378Z"/>
            <path class="cls-4" d="M1256.42,383.4V387c-9.47,1-12,3.32-12.46,6.06a.7.7,0,0,0,.93.75c5.93-2,10.59-1.31,13.18,3.67a.08.08,0,0,0,.15,0c.15-3.94,1.8-6.29,5.21-6.78a.37.37,0,0,0,.06-.72A12.76,12.76,0,0,1,1256.42,383.4Z"/>
          </g>
        </g>
        <g>
          <path class="cls-2" d="M1251.61,483.42c-.38-.61-.91-1.12-.9-1.55a.39.39,0,0,1,.44-.29,2.16,2.16,0,0,1,.64.3,4.59,4.59,0,0,0,.53.39c.12.1.21.06.23-.11l-.29-1.13a1.63,1.63,0,0,1,.49.73l0,.23c0,.06,0,.23,0,0a4.41,4.41,0,0,1,0-.63,4.08,4.08,0,0,1,.06-.64l.25-1c.06-.25.14-.52.22-.8.16-.56.37-1.15.6-1.73a14.2,14.2,0,0,1,1.61-3,8.16,8.16,0,0,1,.75-.87,3.08,3.08,0,0,1,.28-.26l.06-.05-.25.2-.07.06s0,0-.06,0a9.25,9.25,0,0,1-2.55,1.09c-.45.15-.9.27-1.42.39l-.9.21-1,.19c-.38.07-.76.14-1.14.19l-1.15.16s0,0,0,.08.14.13.22.22a4,4,0,0,0,.91.1,9.75,9.75,0,0,1-.29,1.63,1.34,1.34,0,0,0,.34.8l.34.53c.24.37.47.78.71,1.24.11.24.23.48.35.72a8,8,0,0,0,.36.72,4.75,4.75,0,0,1,.56,1.44c.28,1.39-.37,2.3-1.24,3.45a13.72,13.72,0,0,1-1.7,1.74,3.43,3.43,0,0,1-.75.49l-1,.55c-.32.17-.74.37-.95.52l-.63.43a12.93,12.93,0,0,1-4.64,3.43,11.1,11.1,0,0,1-4,.32,4.89,4.89,0,0,1-3.4-1.15,5.76,5.76,0,0,1-2.8,2.23,5,5,0,0,1-2.81.11,11.64,11.64,0,0,0-2.35-.5,3,3,0,0,0-2.45,1.54c-.58-2.53-.92-6.71-2.06-6.47a6.33,6.33,0,0,1-5.52-1,11.06,11.06,0,0,1-2.82-3.35c-1-2-1.73-2.73-2.44-4.2-.77-2.25.26-6-.54-6.7-1.27-1.14-2.09,3.29-3.36,2.15.1,2.16.25,4.31.43,6.44l.07.8.12,1.23.35,3.21c.24,2.13.49,4.27.73,6.4a51.16,51.16,0,0,0,1,6.26,23.77,23.77,0,0,0,2,5.35,22.25,22.25,0,0,0,2.8,4.18,21.74,21.74,0,0,0,4,3.62,20.44,20.44,0,0,0,4.61,2.54,18.58,18.58,0,0,0,2.49.79l1.28.35,1.39.21c3.71.6,7.91.22,12-.2a111.34,111.34,0,0,0,12.44-2.09l1.94-.48,2.23-.59,3.08-.88,3-1c.69-.37,1.64-.84,2.84-1.38l1.9-1,1.07-.53,1.06-.65a25.08,25.08,0,0,0,4.48-3.3,22.57,22.57,0,0,0,4.16-5.11,22.22,22.22,0,0,0,2-4.42,15.52,15.52,0,0,0,.61-2.46c0-.86.09-1.73.13-2.62.2-3.5.4-7.17.6-10.91l.07-1.34v-1c0-.67,0-1.43,0-2.24a37.61,37.61,0,0,0-.57-5.85,27.4,27.4,0,0,0-2.61-7.75,24.42,24.42,0,0,0-2.65-4.07,24.68,24.68,0,0,0-3.41-3.44,26.42,26.42,0,0,0-6.94-4.1,29.69,29.69,0,0,0-6.15-1.75,34.23,34.23,0,0,0-10.79-.18,41.41,41.41,0,0,0-13.61,4.59l-1.31.85a34.82,34.82,0,0,0-10.52,10,30,30,0,0,0-3.16,5.87,25,25,0,0,0-1.55,5.4,38.27,38.27,0,0,0,.46,9.09,25.89,25.89,0,0,1,2.88-2.68c-.9,2.53-1.56,5.07-1,6.18.33,2.83,1.23,3.5,2.35,3.36s2.54-1.13,4.11-1.77c1.48-1.06,3,1.06,4.61-.63-.37,1.38-.54,2.08-.85,3.5.56.18.6-.94.75-1.93s.39-1.84,1.21-1.15c-.74,1.23-.33,2.86-.6,4.25,1.59-.26,1.47-4.66,3-4.07.08.38-.63,1.19-1.14,2s-.78,1.66.17,1.95c.37.11.66-1.22.82-1.88-.11,2.1.3,3.83,1,4.54s1.75.44,3.07-1.2c-.25,1.22-1.3,2.95-1.17,4.38h0c.14-.69.67-1.83.78-2.44-.13.76-.26,1.54-.37,2.32.28-.1.57-.21.85-.33a5.7,5.7,0,0,0,.66-1.69l-.25,1.52a20.89,20.89,0,0,0,2-1.08c1.46-1.63,3.53-2.86,3.74-3.65a27.86,27.86,0,0,1,3.62-7.57,13.31,13.31,0,0,1,.94-1.17l.22-.26.18-.15a3.88,3.88,0,0,1,.36-.32A11.47,11.47,0,0,1,1251.61,483.42Z"/>
          <path class="cls-5" d="M1245.72,494.34c0-.36-.1-.73.09-.89.55-.33,1.07.87,1.7.48v-.59a15.93,15.93,0,0,0,1.68.66,11.44,11.44,0,0,0,3.06-1.28c-.11-.19-.19-.37-.12-.48a15,15,0,0,1,2-.85l.24-.27a1.08,1.08,0,0,0-.14-.45,8.61,8.61,0,0,1,.81-.4,11.16,11.16,0,0,0,1.9-4.86,10.64,10.64,0,0,0-.49-5.1,11.58,11.58,0,0,0-.81-1c-.26-.29-.52-.56-.71-.82-.31-.59-.51-1.36-.83-2l-.22-.46-2-.7a3,3,0,0,0-.37-.11c0,2.07-1.15,3.05-1,5.15-.31,0-.77-.13-.81.45-.12,1.75-.41,3.77-1.27,4.8-.33.24-.8-.51-.93-.16-.19.56.39,1.25.2,1.8a10.41,10.41,0,0,0,3.84.25l-2.36-7.42c.17-.13.12,0-.18,0a3.27,3.27,0,0,1-1.24-.15,3.57,3.57,0,0,1-.8-.36c-.24-.15-.09-.13.22.32.07.1.14.24.21.36l.09.2,0,.05-.88-2.2,0-.07,0-.14-.06-.22c0-.11-.1-.37-.12-.55l0-.15v0h0l0,0a.67.67,0,0,1-.14-.11l0,0c-.2-.11-.65,0-1.24.7-.29.44-.63,1-1,1.48,0,.36.08.72.11,1.06-.24-.09-.5-.19-.68.15-.78.73-.69,1.81-.74,3.24,0,.64-.4,1.51-.25,2.19l-.5-.19c-.15.57.7-.15.36.76-.16-.27-.46,0-.67,0-.1.79.67.45.48,1.21-.16.15-.38-1.17-.63-.23,0,.18.15.26.26.3-.72.14-1.3,1-.93,2.14-.22-.08-.41-.55-.66-.47v0c.1.05.25.29.34.33l-.36-.14,0,.41c.07.14.14.26.23.29l-.24-.09c0,.33,0,.64,0,.94.15.68.26,1.65.43,1.71A11.76,11.76,0,0,0,1245.72,494.34Z"/>
          <g>
            <path class="cls-4" d="M1243.89,470.84c-3.27-25.19,40.28-11.93,25.1,12.55,12.54,10.76-10.76,37.65-21.52,16.14C1215.2,528.21,1204.45,461.88,1243.89,470.84Z"/>
            <path class="cls-4" d="M1249.26,476.22v3.59c-9.46,1-12,3.32-12.45,6.06a.69.69,0,0,0,.93.74c5.93-2,10.59-1.31,13.18,3.67a.08.08,0,0,0,.15,0c.15-3.95,1.8-6.3,5.21-6.78a.38.38,0,0,0,.06-.73A12.8,12.8,0,0,1,1249.26,476.22Z"/>
          </g>
        </g>
        <g>
          <path d="M1323.56,485l-26.24,216.86c-27.53,14.37-55.06,21.65-81.86,21.65s-53.6-7.28-79.73-21.63l-26.28-215.49c23,15.87,62.34,25.25,106.66,25.25,45.76,0,86.24-10.12,107.45-26.64m2.32-4.3c-21.1,19.27-65.24,29.15-109.77,29.15-42.48,0-85.32-9-108.94-27.36L1134.06,703q40.32,22.38,81.4,22.3,41.4,0,83.53-22.3l26.89-222.31Z"/>
          <path class="cls-4" d="M1135,702.11l1.8,23.3c55.8,25.61,109.44,25.88,157.76,3.59l3.59-26.89C1246.72,728.66,1194.53,736.18,1135,702.11Z"/>
          <path class="cls-4" d="M1106.27,469.05c-4.39,4.82-3,10.2,1.84,15.91,55.53,37.87,179.23,32.49,216.88-3.36,3.75-4.34,4.73-9.07,1.79-14.34C1252,503.55,1178.44,504.36,1106.27,469.05Z"/>
        </g>
        <line class="cls-4" x1="1155.74" y1="505.28" x2="1176.82" y2="718.61"/>
        <line class="cls-4" x1="1273.32" y1="505.82" x2="1260.3" y2="716.92"/>
        <line class="cls-4" x1="1218.56" y1="511.51" x2="1218.56" y2="725.87"/>
        <g>
          <path class="cls-2" d="M1233.69,442.19c-.39-.62-.92-1.12-.91-1.55a.4.4,0,0,1,.44-.29,2.16,2.16,0,0,1,.64.3,3.45,3.45,0,0,0,.53.38c.12.11.21.07.23-.1l-.29-1.13a1.65,1.65,0,0,1,.5.73l0,.23c0,.06,0,.22,0,0a3.35,3.35,0,0,1,0-.64,5.68,5.68,0,0,1,.06-.63l.25-1.05.22-.81a16.16,16.16,0,0,1,.61-1.72,13.1,13.1,0,0,1,1.61-3,6.64,6.64,0,0,1,.74-.88l.28-.25.06-.05-.25.2-.07.05-.06,0a10,10,0,0,1-2.55,1.09c-.45.15-.9.27-1.42.39q-.45.12-.9.21l-1,.19-1.14.19-1.15.16s0,0-.05.08.15.13.22.22a4.8,4.8,0,0,0,.92.1,13,13,0,0,1-.29,1.63,1.31,1.31,0,0,0,.33.79l.35.53c.23.38.46.79.7,1.25.12.23.23.47.35.72a8,8,0,0,0,.36.72,4.75,4.75,0,0,1,.56,1.44c.28,1.38-.36,2.3-1.23,3.45a13.84,13.84,0,0,1-1.71,1.73,3.17,3.17,0,0,1-.74.5l-1,.54c-.32.18-.74.38-.94.52l-.64.44a13,13,0,0,1-4.63,3.43,11.37,11.37,0,0,1-4,.31,4.89,4.89,0,0,1-3.4-1.14,5.76,5.76,0,0,1-2.8,2.23,5,5,0,0,1-2.81.11,10.3,10.3,0,0,0-2.35-.5,3,3,0,0,0-2.45,1.54c-.58-2.54-.92-6.72-2.06-6.47a6.33,6.33,0,0,1-5.51-1,11.21,11.21,0,0,1-2.83-3.35c-1-2-1.72-2.73-2.44-4.2-.77-2.25.26-6-.54-6.7-1.27-1.14-2.09,3.29-3.36,2.15.1,2.16.25,4.31.43,6.44l.07.8.12,1.23.35,3.2c.25,2.14.49,4.27.74,6.41a49.59,49.59,0,0,0,1,6.26,23.77,23.77,0,0,0,2,5.35,21.71,21.71,0,0,0,6.76,7.8,20.9,20.9,0,0,0,4.62,2.54,18.89,18.89,0,0,0,2.48.78l1.28.36,1.4.21c3.7.59,7.91.22,12-.2a109.12,109.12,0,0,0,12.44-2.1l1.94-.47,2.24-.59,3.08-.88,3-1c.68-.37,1.63-.84,2.83-1.38l1.9-1,1.07-.54L1251,468a25.57,25.57,0,0,0,4.49-3.31,21.52,21.52,0,0,0,6.1-9.52,15,15,0,0,0,.61-2.46c0-.86.09-1.74.14-2.62.19-3.5.39-7.17.59-10.91l.08-1.34v-1c0-.66,0-1.42,0-2.23a39,39,0,0,0-.58-5.85,26.68,26.68,0,0,0-2.61-7.75,24.42,24.42,0,0,0-2.65-4.07,23.63,23.63,0,0,0-3.41-3.44,26.54,26.54,0,0,0-6.93-4.1,29.76,29.76,0,0,0-6.16-1.75,34.49,34.49,0,0,0-10.78-.19,41.45,41.45,0,0,0-13.62,4.6l-1.3.85a34.7,34.7,0,0,0-10.53,9.95,30.07,30.07,0,0,0-3.16,5.88,25,25,0,0,0-1.55,5.4,38.27,38.27,0,0,0,.46,9.09,26,26,0,0,1,2.88-2.69c-.9,2.54-1.56,5.08-1,6.18.33,2.84,1.23,3.51,2.35,3.37s2.54-1.13,4.11-1.78c1.49-1.05,3,1.06,4.62-.62-.38,1.38-.54,2.08-.86,3.49.56.18.6-.93.75-1.92s.39-1.85,1.21-1.15c-.74,1.22-.33,2.86-.6,4.25,1.59-.26,1.48-4.66,3-4.08.09.39-.63,1.19-1.14,2s-.78,1.66.17,2c.37.11.67-1.22.82-1.88-.11,2.1.3,3.82,1,4.54s1.74.44,3.06-1.21c-.25,1.23-1.29,2.95-1.17,4.39h0c.14-.69.67-1.83.78-2.45-.13.76-.25,1.54-.37,2.33.29-.1.57-.21.85-.33a5.65,5.65,0,0,0,.66-1.7l-.24,1.52a18.7,18.7,0,0,0,2-1.08c1.47-1.62,3.54-2.85,3.74-3.64a28.16,28.16,0,0,1,3.62-7.57,13.68,13.68,0,0,1,.94-1.17l.22-.26a.93.93,0,0,0,.18-.16c.11-.11.24-.21.36-.31A11.55,11.55,0,0,1,1233.69,442.19Z"/>
          <path class="cls-5" d="M1227.79,453.11c0-.37-.09-.73.09-.89.55-.34,1.07.86,1.71.47v-.58a13.24,13.24,0,0,0,1.67.65,11.44,11.44,0,0,0,3.06-1.28c-.1-.19-.19-.36-.11-.47a14.79,14.79,0,0,1,2-.86l.24-.26a.92.92,0,0,0-.14-.45,6.86,6.86,0,0,1,.81-.41,11.05,11.05,0,0,0,1.9-4.85,10.68,10.68,0,0,0-.49-5.11,11.41,11.41,0,0,0-.81-1c-.26-.3-.51-.56-.71-.82-.31-.59-.51-1.36-.83-2l-.22-.46-2-.7a2,2,0,0,0-.38-.11c0,2.07-1.15,3.05-1,5.15-.3-.06-.77-.14-.81.45-.12,1.75-.41,3.76-1.26,4.8-.33.23-.81-.52-.93-.17-.2.56.38,1.25.19,1.81a10.41,10.41,0,0,0,3.84.25l-2.36-7.43c.17-.13.13,0-.17,0a3.13,3.13,0,0,1-1.25-.15,4,4,0,0,1-.8-.35c-.24-.16-.09-.14.22.32a3.1,3.1,0,0,1,.21.36,2,2,0,0,1,.09.2l0,.05-.87-2.21,0-.06,0-.14-.07-.22c0-.12-.09-.38-.12-.55l0-.16s0,0,0,0h0l-.05,0a.5.5,0,0,1-.14-.12l0,0c-.19-.11-.65,0-1.24.69-.29.45-.63,1-1,1.49L1226,439c-.25-.09-.5-.19-.69.15-.78.73-.69,1.81-.74,3.24.05.64-.4,1.51-.25,2.19l-.5-.19c-.15.57.7-.15.36.75-.16-.26-.46,0-.66,0-.11.79.66.46.47,1.21-.16.15-.38-1.17-.63-.23-.05.19.15.27.26.31-.72.14-1.3,1-.93,2.14-.21-.08-.4-.55-.65-.47h0c.11.06.25.3.34.34l-.35-.14,0,.41a.5.5,0,0,0,.23.29l-.24-.09c0,.32,0,.64,0,.94.15.68.26,1.65.43,1.71A12,12,0,0,0,1227.79,453.11Z"/>
          <g>
            <path class="cls-4" d="M1226,429.61c-3.27-25.19,40.28-11.93,25.1,12.55,12.55,10.75-10.76,37.65-21.52,16.13C1197.27,487,1186.52,420.64,1226,429.61Z"/>
            <path class="cls-4" d="M1231.34,435v3.58c-9.47,1-12,3.33-12.46,6.06a.69.69,0,0,0,.93.75c5.93-2,10.59-1.31,13.18,3.67a.08.08,0,0,0,.15,0c.15-3.95,1.8-6.3,5.21-6.78a.38.38,0,0,0,.06-.73A12.78,12.78,0,0,1,1231.34,435Z"/>
          </g>
        </g>
      </g>
    </g>
  </g>
</svg>
