<svg xmlns="http://www.w3.org/2000/svg" viewBox="0 0 145.24 44.04">
  <defs>
    <style>
      .cls-1 {
        fill: #fff4ce;
      }

      .cls-2 {
        fill: #ffdd70;
      }

      .cls-3, .cls-5, .cls-6 {
        fill: none;
        stroke: #000;
        stroke-miterlimit: 10;
      }

      .cls-4 {
        fill: #ffcb20;
      }

      .cls-5 {
        stroke-width: 0.96px;
      }

      .cls-6 {
        stroke-width: 1.04px;
      }
    </style>
  </defs>
  <title>popLine</title>
  <g id="Layer_2" data-name="Layer 2">
    <g id="Layer_1-2" data-name="Layer 1">
      <g>
        <path class="cls-1" d="M8.38,3.38c.23.34.93.33.3,1-1,1-2.16,1.72-3.23,2.63A7.55,7.55,0,0,0,3,10.26l.5.46A31.37,31.37,0,0,0,.75,15.55c-.15.73-.25,1.36-.34,2S.24,19,.19,19.67a26.32,26.32,0,0,0,0,4.6c.24-.1.46-.14.55.18a38.14,38.14,0,0,0,.85,5.77c.14.31.28.62.43.91a.74.74,0,0,0,.61.15c.34.95.7,1.77,1.05,2.52l.23.31a17.83,17.83,0,0,0,6.22,5,19.2,19.2,0,0,0,6.77,1.81,25.27,25.27,0,0,0,3.13.08,22.88,22.88,0,0,0,3.67-.32,19.7,19.7,0,0,0,6.5-2.23,23.71,23.71,0,0,0,3.69-3.77,16.67,16.67,0,0,0,2.73-3.55,9.58,9.58,0,0,0,1.07-3.3c-1.14-.08-1.87-1.56-2.94-2.63A4.78,4.78,0,0,0,33,23.93a2.49,2.49,0,0,0-1.82,0c-.2-.95-.92-2.28-1.61-2.08-2.05.55-4.65.88-5.94,1.31-.75-.35-1.75-2.3-2.36-2.3s-.38.54-.29,1.08.16,1.05-.3,1.06L22,24.26l.26.29s0,0,0,0l0,0s-.07,0-.08,0,.06-.08.15,0,.15.27,0,.26a.54.54,0,0,1-.07.33s0,0,0,0,.05,0,0,0h-.39a7.89,7.89,0,0,1-.84-.05,5.72,5.72,0,0,1-.78-.14l-.32-.08c-.06,0-.08,0-.13,0a1,1,0,0,1-.5-.25,1,1,0,0,1-.2-.3L19,24.21a2.38,2.38,0,0,1-.06-.38,11.88,11.88,0,0,1,.27-3.12,5.76,5.76,0,0,1,.57-1.88s0,0,0,0l-.48-.3-.35-.24,0,0L18.55,18h0l0,0,.15.14.17.18.14.19a4,4,0,0,1,.34.55l.09.16h0s0,0,0,0l.25-.17a6.86,6.86,0,0,1,1-.68,4.79,4.79,0,0,1,2.33-.79c0-.5-.09-1-.15-1.46.66.43,1.26,1,1.79.94,1,.29,1.6.17,1.95-.36a6.66,6.66,0,0,0,.65-2.3c-.09-1,1.41-1.09.91-2.44a16.81,16.81,0,0,1,1.62,1.65c.28-.18-.27-.66-.77-1.08s-.95-.8-.35-1c.54.78,1.55,1.21,2.16,2,.23-.42-.27-1.12-.8-1.73s-1.06-1.15-.73-1.43c.29.09.66.79,1,1.39s.69,1.09,1.16.81c.19-.12-.47-.9-.85-1.27a9.67,9.67,0,0,0,2.94,1.88c.63.12,1-.44.4-2.06.71.88,1.25,2.4,2,3.29v0a21,21,0,0,0-1-1.9c.38.55.73,1.11,1.06,1.67.07-.17.14-.34.2-.53a5.37,5.37,0,0,0-.65-1.42c.25.38.5.75.73,1.14a6.84,6.84,0,0,0,.18-1.54c-.38-1.76-.8-3.75-1.51-4.48A21.58,21.58,0,0,0,23.5.43,19.88,19.88,0,0,0,15.89.31,18.79,18.79,0,0,0,8.38,3.38Z"/>
        <path d="M10.61,8.29a4.56,4.56,0,0,1,4.61,3.52l.56,1.67,1.15-1.34a6.94,6.94,0,0,1,5.4-2.48,8.27,8.27,0,0,1,6.93,3.79,7.58,7.58,0,0,1,0,7.59l-.87,1.73,1.91-.29a10.26,10.26,0,0,1,1.49-.12c2.21,0,3.33.94,3.33,2.79,0,3.15-3.47,8.17-7.57,8.17a5.55,5.55,0,0,1-3.73-1.58l-1.53-1.35-.14,2c-.29,4.45-3.65,5.39-6.41,5.39-5.75,0-12.41-4-13.72-8.18-.81-2.61.43-5.07,3.7-7.32l1.65-1.13-1.9-.64c-2.27-.75-4.89-2.24-4.44-5,.56-3.45,5.56-7.25,9.56-7.25h0m0-1C3.44,7.29-6,17.75,5.17,21.49-6,29.17,6.73,38.81,15.76,38.81c3.9,0,7.11-1.8,7.41-6.32a6.56,6.56,0,0,0,4.4,1.83c7.11,0,12.85-13,4.24-13a11,11,0,0,0-1.64.13c3.6-7.19-2.11-12.83-7.84-12.83a8,8,0,0,0-6.16,2.83,5.55,5.55,0,0,0-5.56-4.2Z"/>
        <path class="cls-2" d="M14,13.51a6.79,6.79,0,0,1,.54.83c.1.4-.74-.67-.64-.28l.36.55c-.24-.17-.53-.42-.79-.61a2,2,0,0,0-.25.72,3.23,3.23,0,0,1,.29.46c0,.19-.19.07-.33.07,0,.05,0,.09,0,.13l.26.43a.31.31,0,0,1-.2,0c.22,1.39.56,3,.84,4.58a9.21,9.21,0,0,1,.48,1.46c0,.31-.46.1-.66.14,1.3,1.9,1.53,3.1,2.9,5-.13,0-.33.07,0,.62a26.35,26.35,0,0,1,2.59,4.75c0,.3-.58-.27-.4.08.29.57.91,1.06,1.19,1.62,1.21.05,1.52-1.18,2.36-1.71-.29-1,1.35-2.66,2.08-2.6l0-.05c.33-.07.56-.43.3-1.31-.2-.52-.46-1.14-.71-1.74l-.76-.86c.13,0,.27-.06.08-.43a12.23,12.23,0,0,0-2-3.1c-.44-.53-.94-1.47-1.43-2l.22,0c-.35-.55,0,.42-.57-.5.21.16.06-.22.15-.24-.51-.73-.43-.12-.9-.85-.07-.2.86.86.27-.06-.12-.18-.21-.16-.25-.15a3.84,3.84,0,0,0-1.28-2.23c.09,0,.44.31.43.13h0c-.06,0-.24-.15-.28-.14l.15,0-.27-.36c-.11-.09-.2-.16-.24-.15l.11,0c-.22-.28-.43-.55-.64-.8a15.89,15.89,0,0,0-1.21-1.3A2.87,2.87,0,0,0,14,13.51Z"/>
        <path class="cls-3" d="M19.17,18.49c-.57,3.66-2.42,4.59-5,4,1.71,2.5,1.65,4.83,0,7,3,.56,5.22-.45,6-4h7c-.47-2.58-2.77-3.27-6-3,.74-2,0-3.63-2-5"/>
      </g>
      <g>
        <path class="cls-1" d="M126.33,23.7c0-.38-.07-.77.07-.95s.42.07.54.34.21.52.43.39l.22-.59a1,1,0,0,1,.17.55.64.64,0,0,1,0,.24l0,0,.13-.2.25-.38a7.07,7.07,0,0,1,.84-1l.32-.3,0,0-.07.06-.22.16a4,4,0,0,1-1.25.5l.1,0c.17,0,0,.11-.12.16l.11.05.48.11c0,.06-.1.06-.18.08.48.59.18,2.18-1,3.54a8.62,8.62,0,0,1-5.36,2.85,6,6,0,0,1-3.27.51,5.45,5.45,0,0,1-2.09-1.27,11.82,11.82,0,0,1-1.49-1.82,2,2,0,0,1-1.44.54,5,5,0,0,1-1.76-.4c-1.19-.41-2.35-1.08-3.19-.16l-.4-1.12c-.11-.4-.24-.79-.37-1.15-.22-.71-.48-1.25-.79-1.26a4.51,4.51,0,0,1-3-1.14,7.2,7.2,0,0,1-2-5.32,6.17,6.17,0,0,1,.35-1.75,11.19,11.19,0,0,1,.73-1.74,12,12,0,0,0,1.13-2.41.32.32,0,0,0-.39-.27c-.2,0-.54.33-.85.58-.63.53-1.25,1.13-1.25.39a21.43,21.43,0,0,0-1.81,12.58,22.54,22.54,0,0,0,5.09,11.22,22.81,22.81,0,0,0,10.28,6.9,26,26,0,0,0,11.74,1.07c.66-.23,1.79-.52,3.25-1a26.67,26.67,0,0,0,5.1-2.48A23.08,23.08,0,0,0,140.74,35a19.55,19.55,0,0,0,4-8,18.22,18.22,0,0,0-.38-9.6,16.73,16.73,0,0,0-2.23-4.5,16.17,16.17,0,0,0-3.35-3.52,19.79,19.79,0,0,0-6.39-3.26,25.38,25.38,0,0,0-4.66-1l-.86,0a18.51,18.51,0,0,0-8.18,1.45,16.8,16.8,0,0,0-3.65,2.18,13.38,13.38,0,0,0-2.66,2.81,15.5,15.5,0,0,0-2,5.88,10.33,10.33,0,0,1,2.11-1.48c-1.07,1.47-1.8,3.19-1.62,4-.11,2,.44,2.43,1,2.31s1.41-.75,2.31-1c.44-.29.81-.07,1.21.08a1.24,1.24,0,0,0,1.3-.11,9.44,9.44,0,0,0-.61,1.74c.3.1.32-.46.46-.95s.32-.9.7-.48c-.48.54-.32,1.38-.43,2,.44-.05.6-.57.83-1s.48-.85.84-.64c0,.18-.39.45-.68.8s-.42.72.09.86c.2,0,.34-.5.44-.77a1.7,1.7,0,0,0,.65,1.78c.44.24.94,0,1.56-.39-.08.3-.51.86-.3,1.24h0a6.62,6.62,0,0,1,.2-.71c0,.21,0,.42,0,.64l.42-.17a.9.9,0,0,0,.21-.43c0,.11,0,.24,0,.36.32-.13.66-.24,1-.34a6.41,6.41,0,0,1,1.73-.35c.32-.29.83-.58,1-.51A8.45,8.45,0,0,1,126.33,23.7Z"/>
        <path class="cls-4" d="M124,29.45c.09-.17.1-.39.27-.4.49.05.52.8,1,.84l.18-.26.77.91c.64.28,1.29.53,2,.76,0-.11.07-.21.15-.22h0l7.37,1.74-1-5.44a5.67,5.67,0,0,1,.1-1.23l-.05-.21a.61.61,0,0,0-.25-.08,4.44,4.44,0,0,1,.07-.57,26,26,0,0,0-1.24-3.39l-.09-.21-.11-.29-.22-.6c-.15-.4-.32-.77-.48-1.14a21.07,21.07,0,0,0-1.06-2c-.44-.41-.88-.71-1.19-1.07s-.39-.69-.67-1a2.52,2.52,0,0,0-1-.78c-.16.52-.73.77-1.21,1.25a3,3,0,0,0-.63.86,2.56,2.56,0,0,0-.29,1c-.31.07-.75.28-.8.66-.17,1.16-.47,2.56-.55,3.25,0,.09-.08,0-.15,0l-.08,0-.13.06a.25.25,0,0,0-.12.1.19.19,0,0,0,.06.23c.06.06.26.07.37.11a2.11,2.11,0,0,1,.18.45c.07.15,0,.18,0,.1s.13-.15.14-.09a.35.35,0,0,1,.2,0l0,0,0,0,0,.15c.05.22.1.46.15.71A17.65,17.65,0,0,1,126,27l6.31-3.65a41.39,41.39,0,0,1-3.87-2.07l-.17-.07a7.6,7.6,0,0,0-3.17-1.14c-.5,0-1,.12-1.55.19.09.26.17.5.23.74-.37-.22-.75-.45-1-.35-1,0-.83.73-.86,1.57.07.41-.47.7-.27,1.18l-.62-.37c-.18.27.87.27.45.64-.19-.24-.56-.21-.81-.36-.11.43.82.61.59,1-.19,0-.46-.88-.75-.45-.06.09.19.24.31.31-.87-.27-1.53-.05-1.07.83-.24-.14-.5-.52-.8-.6h0c.13.09.31.3.42.37l-.44-.26,0,.24a1.09,1.09,0,0,0,.29.28l-.29-.17a2.73,2.73,0,0,0,0,.57c.2.48.32,1.1.51,1.21A45,45,0,0,0,124,29.45Z"/>
        <g>
          <path class="cls-5" d="M124.63,11.14c-3.84-6.73-18.27-2.89-11.54,5.77-10.49,3.75-3.52,16,5.77,13.46-1,9.62,16.35,13.47,16.35,0,5.77,1,8.66-7.69,1-11.54C139.06,12.1,134.25,6.33,124.63,11.14Z"/>
          <path class="cls-5" d="M129.87,18.54a3.89,3.89,0,0,0-5.14,1.14.18.18,0,0,1-.22,0c-1.22-.5-7.43.51-7.57,4.65a.13.13,0,0,0,.19.1c2.21-1.62,4.41-2.68,6.54-.83V28a.4.4,0,0,0,.47.39,5.08,5.08,0,0,0,4.34-3.77l1.86,3.73a0,0,0,0,0,.09,0c.47-2.82.73-5.6-2.91-7.55l2.38-1.59A.37.37,0,0,0,129.87,18.54Z"/>
        </g>
      </g>
      <g>
        <path class="cls-1" d="M73.58,23.84c-.23-.35-.53-.65-.53-.89s.39-.16.63,0,.42.38.44.16L74,22.46a.94.94,0,0,1,.29.42l0,.14s0,.13,0,0a2.28,2.28,0,0,1,0-.37,1.81,1.81,0,0,1,0-.37l.14-.61.13-.46a7.94,7.94,0,0,1,.35-1,8,8,0,0,1,.93-1.72,4,4,0,0,1,.43-.5l.16-.15,0,0-.14.12,0,0,0,0a5.93,5.93,0,0,1-1.48.63,6.11,6.11,0,0,1-.82.22c-.37.1-.65.15-1.1.23-.22.05-.44.08-.66.12l-.67.09s0,0,0,0,.09.08.13.13a2.39,2.39,0,0,0,.53.06,5.11,5.11,0,0,1-.17.94.87.87,0,0,0,.19.47l.21.3c.13.22.27.46.4.72s.28.6.42.84a2.7,2.7,0,0,1,.32.83,2.36,2.36,0,0,1-.71,2,8.47,8.47,0,0,1-1,1c-.41.34-1.65.87-1.93,1.15a7.47,7.47,0,0,1-2.69,2,6.37,6.37,0,0,1-2.3.18,2.82,2.82,0,0,1-2-.66,3.33,3.33,0,0,1-1.62,1.29,3,3,0,0,1-1.63.07,5.79,5.79,0,0,0-1.37-.29,1.72,1.72,0,0,0-1.41.89c-.34-1.47-.54-3.89-1.2-3.75a3.66,3.66,0,0,1-3.19-.57A6.49,6.49,0,0,1,50.89,25c-.57-1.14-1-1.59-1.41-2.44-.45-1.3.15-3.46-.32-3.88-.73-.66-1.21,1.91-1.94,1.24.06,1.26.14,2.5.24,3.74l.12,1.17.2,1.86.42,3.71A29.59,29.59,0,0,0,48.76,34a14.16,14.16,0,0,0,1.16,3.1,12.8,12.8,0,0,0,3.92,4.52A11.68,11.68,0,0,0,58,43.54l.74.2.8.12a27.8,27.8,0,0,0,7-.11,64.4,64.4,0,0,0,7.2-1.22l1.13-.27,1.29-.34c1.2-.33,2.38-.69,3.56-1.08.78-.43,2.26-1,4-2a13.84,13.84,0,0,0,5-4.87,12.77,12.77,0,0,0,1.13-2.56A9.52,9.52,0,0,0,90.13,30c0-.5.05-1,.07-1.52l.35-6.32,0-.78V19.47a23.82,23.82,0,0,0-.33-3.39,15.75,15.75,0,0,0-1.52-4.49A14.31,14.31,0,0,0,87.2,9.24a13.89,13.89,0,0,0-2-2,15.38,15.38,0,0,0-4-2.38,17.29,17.29,0,0,0-3.56-1,20,20,0,0,0-6.25-.1A23.59,23.59,0,0,0,63.5,6.41l-.76.49a20.27,20.27,0,0,0-6.1,5.77,16.5,16.5,0,0,0-2.72,6.53,21.79,21.79,0,0,0,.26,5.27,14.83,14.83,0,0,1,1.67-1.56c-.52,1.47-.9,2.94-.59,3.58.19,1.64.72,2,1.37,2a13.51,13.51,0,0,0,2.38-1c.86-.61,1.71.61,2.67-.37-.22.8-.31,1.21-.49,2,.63.21.15-2.59,1.13-1.79C61.9,28,62.13,29,62,29.76c.93-.15.86-2.7,1.74-2.36.09.42-1.67,1.94-.57,2.29.22.07.39-.7.48-1.09a3.85,3.85,0,0,0,.58,2.64c.42.42,1,.25,1.78-.7a9.89,9.89,0,0,0-.68,2.54h0c.08-.4.39-1.06.45-1.41L65.56,33a4.94,4.94,0,0,0,.49-.19,3.37,3.37,0,0,0,.38-1l-.14.88a12.66,12.66,0,0,0,1.14-.63c.85-.94,2-1.65,2.16-2.11a16.42,16.42,0,0,1,2.1-4.38,5.79,5.79,0,0,1,.55-.68l.13-.15.1-.09a1.81,1.81,0,0,1,.21-.18A5.82,5.82,0,0,1,73.58,23.84Z"/>
        <path class="cls-4" d="M70.16,30.17c0-.21,0-.42,0-.52.32-.19.63.51,1,.28v-.34a8.93,8.93,0,0,0,1,.38A6.86,6.86,0,0,0,74,29.23c-.06-.11-.11-.21-.07-.28A8.27,8.27,0,0,1,75,28.46l.14-.16a.57.57,0,0,0-.08-.26,5,5,0,0,1,.47-.23A6.46,6.46,0,0,0,76.64,25a6.13,6.13,0,0,0-.28-3c-.3-.42-.66-.76-.89-1.05s-.29-.79-.48-1.18l-.12-.27-1.16-.4a.9.9,0,0,0-.22-.06c0,1.19-.66,1.76-.56,3-.18,0-.45-.08-.47.26a5.36,5.36,0,0,1-.74,2.78c-.19.14-.46-.3-.53-.09s.22.72.11,1a6.18,6.18,0,0,0,2.22.15l-1.37-4.31c.1-.07.08,0-.09,0a2.06,2.06,0,0,1-.73-.09,2,2,0,0,1-.46-.21c-.14-.08-.05-.07.13.19,0,.06.08.14.12.21a1.17,1.17,0,0,1,0,.11v0l-.5-1.27,0,0a3.66,3.66,0,0,1-.13-.53c0-.18,0-.08,0-.11h0l-.09-.07,0,0c-.11-.07-.38,0-.72.4-.16.26-.36.57-.58.86l.07.62c-.14-.06-.29-.12-.4.08-.45.42-.4,1.05-.43,1.88,0,.37-.23.87-.14,1.27l-.29-.11c-.09.33.41-.09.21.43-.09-.15-.27,0-.39,0-.06.46.39.26.28.7-.1.09-.22-.68-.37-.13,0,.11.09.15.15.18-.41.08-.75.55-.54,1.24-.12-.05-.23-.32-.37-.28h0c.06,0,.14.17.2.2l-.21-.08v.23a.3.3,0,0,0,.13.17l-.14-.05c0,.19,0,.37,0,.54.09.4.15,1,.25,1A6.93,6.93,0,0,0,70.16,30.17Z"/>
        <g>
          <path class="cls-6" d="M69.1,16.55C67.21,2,92.44,9.64,83.64,23.82c7.28,6.24-6.23,21.82-12.46,9.35C52.48,49.8,46.25,11.36,69.1,16.55Z"/>
          <path class="cls-6" d="M72.22,19.67v2.08c-5.49.57-7,1.92-7.22,3.51a.4.4,0,0,0,.54.43c3.44-1.14,6.14-.76,7.63,2.13,0,0,.09,0,.09,0,.09-2.29,1-3.65,3-3.93a.22.22,0,0,0,0-.42A7.38,7.38,0,0,1,72.22,19.67Z"/>
        </g>
      </g>
    </g>
  </g>
</svg>
